<svg xmlns="http://www.w3.org/2000/svg" width="300.07" height="54.232" viewBox="0 0 300.07 54.232">
  <g id="LOGO" transform="translate(-8.6 -394.9)">
    <g id="Group_257" data-name="Group 257" transform="translate(8.6 394.9)">
      <g id="Group_254" data-name="Group 254" transform="translate(0)">
        <g id="Group_253" data-name="Group 253">
          <g id="Group_252" data-name="Group 252" transform="translate(65.185)">
            <g id="Group_251" data-name="Group 251">
              <circle id="Ellipse_68" data-name="Ellipse 68" cx="3.833" cy="3.833" r="3.833" transform="translate(35.564 46.054) rotate(-9.218)" fill="#348888"/>
              <circle id="Ellipse_69" data-name="Ellipse 69" cx="3.833" cy="3.833" r="3.833" transform="translate(0.651 51.299) rotate(-67.5)" fill="#348888"/>
              <path id="Path_1038" data-name="Path 1038" d="M293.057,418.326l-3.347,7.151H254.1l3.346-7.151,7.58-16.275h-7.808l2.717-5.864.6-1.287h15.731l-3.346,7.151-7.608,16.275Z" transform="translate(-249.066 -394.9)" fill="#348888"/>
              <path id="Path_1039" data-name="Path 1039" d="M288.1,436.9H260.383l-3.347,7.122h27.745l-7.608,16.3H239.818l-3.318,7.151h45.221l3.346-7.151,7.58-16.3,3.347-7.122Z" transform="translate(-236.5 -424.887)" fill="#348888"/>
              <path id="Path_1040" data-name="Path 1040" d="M272.637,405.264H265l2.717-5.864Z" transform="translate(-256.848 -398.113)" fill="#348888"/>
            </g>
          </g>
          <path id="Path_1041" data-name="Path 1041" d="M81.308,430.2l-2.689,5.749-17.648-.715-6.064-.229L8.6,433.146l46.365-1.888L63,430.944Z" transform="translate(-8.6 -420.103)" fill="#348888"/>
          <path id="Path_1042" data-name="Path 1042" d="M127.439,533.743l8.867-.343-1.173,2.488q-15.1-.6-30.233-1.23Q116.184,534.187,127.439,533.743Z" transform="translate(-77.356 -493.785)" fill="#348888"/>
          <path id="Path_1043" data-name="Path 1043" d="M119.106,499l-1.659,3.547L74.4,500.8Z" transform="translate(-55.579 -469.225)" fill="#348888"/>
          <path id="Path_1044" data-name="Path 1044" d="M99.15,464.5l-2.174,4.691L40,466.9Z" transform="translate(-31.019 -444.593)" fill="#348888"/>
        </g>
      </g>
      <g id="Group_256" data-name="Group 256" transform="translate(93.473 0.791)">
        <g id="Group_255" data-name="Group 255" transform="translate(1.534)">
          <path id="Path_1045" data-name="Path 1045" d="M354.261,408.118a.105.105,0,0,1-.086-.029l-.686-.315a.218.218,0,0,1,.172-.4l.686.315a.234.234,0,0,1,.114.286C354.4,408.061,354.347,408.118,354.261,408.118Z" transform="translate(-349.76 -404.59)" fill="#348888"/>
          <path id="Path_1046" data-name="Path 1046" d="M353.574,403.032a.215.215,0,0,1-.2-.143c-.029-.114,0-.229.114-.257l.715-.257c.114-.029.229,0,.257.114s0,.229-.114.257l-.715.257C353.632,403.032,353.6,403.032,353.574,403.032Z" transform="translate(-349.76 -401.02)" fill="#348888"/>
          <path id="Path_1047" data-name="Path 1047" d="M350.674,398.79a.105.105,0,0,1-.086-.029.234.234,0,0,1-.114-.286l.315-.686a.218.218,0,0,1,.4.172l-.315.686A.227.227,0,0,1,350.674,398.79Z" transform="translate(-347.69 -397.664)" fill="#348888"/>
          <path id="Path_1048" data-name="Path 1048" d="M345.739,398.8a.215.215,0,0,1-.2-.143l-.257-.715a.2.2,0,1,1,.372-.143l.257.715a.215.215,0,0,1-.114.257C345.8,398.8,345.768,398.8,345.739,398.8Z" transform="translate(-343.984 -397.671)" fill="#348888"/>
          <path id="Path_1049" data-name="Path 1049" d="M341.661,402.718a.105.105,0,0,1-.086-.029l-.686-.315a.218.218,0,1,1,.172-.4l.686.315a.234.234,0,0,1,.114.286C341.8,402.661,341.747,402.718,341.661,402.718Z" transform="translate(-340.764 -400.734)" fill="#348888"/>
        </g>
        <path id="Path_1050" data-name="Path 1050" d="M335.4,408.261l4.033-3.461v5.292l-1.287-1-1.2,2.6-.515-.229-.543-.229,1.2-2.631Z" transform="translate(-335.4 -402.759)" fill="#348888"/>
      </g>
    </g>
    <g id="Group_259" data-name="Group 259" transform="translate(138.742 430.596)">
      <g id="Group_258" data-name="Group 258" transform="translate(0 0)">
        <path id="Path_1051" data-name="Path 1051" d="M464.687,521.144v3.289h3.89v.915h-3.919v3.432h4.748v.944H463.6V520.2h5.806v.944Z" transform="translate(-463.6 -520.057)" fill="#348888"/>
        <path id="Path_1052" data-name="Path 1052" d="M509.963,528.881v.944H504.7V520.3h1.058v8.581Z" transform="translate(-492.944 -520.128)" fill="#348888"/>
        <path id="Path_1053" data-name="Path 1053" d="M543.358,521.144v3.289h3.919v.915h-3.919v3.432h4.748v.944H542.3V520.2h5.806v.944Z" transform="translate(-519.79 -520.057)" fill="#348888"/>
        <path id="Path_1054" data-name="Path 1054" d="M583.073,529a2.837,2.837,0,0,1-1.087-1.6,10.441,10.441,0,0,1-.286-2.774,10.584,10.584,0,0,1,.286-2.774,2.8,2.8,0,0,1,1.058-1.6,3.685,3.685,0,0,1,2.2-.543,13.078,13.078,0,0,1,2.574.315l-.029.887a13.262,13.262,0,0,0-2.4-.257,3.121,3.121,0,0,0-1.63.372,1.794,1.794,0,0,0-.744,1.23,13.1,13.1,0,0,0-.2,2.488,9,9,0,0,0,.2,2.2,1.934,1.934,0,0,0,.772,1.2,3.142,3.142,0,0,0,1.745.4,12.4,12.4,0,0,0,2.288-.257l.029.915a12.118,12.118,0,0,1-2.517.286A3.694,3.694,0,0,1,583.073,529Z" transform="translate(-547.92 -519.7)" fill="#348888"/>
        <path id="Path_1055" data-name="Path 1055" d="M623.146,521.244H620.2V520.3h6.893v.944h-2.917v8.581h-1.058v-8.581Z" transform="translate(-575.408 -520.128)" fill="#348888"/>
        <path id="Path_1056" data-name="Path 1056" d="M663.5,520.2h3.518a3.184,3.184,0,0,1,2.288.715,2.828,2.828,0,0,1,.744,2.174,2.545,2.545,0,0,1-1.745,2.774l1.831,3.861h-1.173l-1.716-3.661h-2.689v3.661H663.5Zm3.547,4.948a2,2,0,0,0,0-4h-2.46v4Z" transform="translate(-606.323 -520.057)" fill="#348888"/>
        <path id="Path_1057" data-name="Path 1057" d="M707.816,529.024a2.79,2.79,0,0,1-1.173-1.573,9.337,9.337,0,0,1-.343-2.8,8.519,8.519,0,0,1,.372-2.8,2.857,2.857,0,0,1,1.173-1.6,4.145,4.145,0,0,1,2.231-.543,4.03,4.03,0,0,1,2.231.543,3.035,3.035,0,0,1,1.2,1.6,8.591,8.591,0,0,1,.372,2.832,9.337,9.337,0,0,1-.343,2.8,2.82,2.82,0,0,1-1.173,1.545,4.167,4.167,0,0,1-2.231.486A4.5,4.5,0,0,1,707.816,529.024Zm3.861-.83a2.035,2.035,0,0,0,.8-1.23,9.4,9.4,0,0,0,.229-2.288,9.831,9.831,0,0,0-.229-2.317,2.309,2.309,0,0,0-.829-1.287,2.6,2.6,0,0,0-1.6-.429,2.815,2.815,0,0,0-1.6.4,2.358,2.358,0,0,0-.829,1.287,8.507,8.507,0,0,0-.229,2.317,9.557,9.557,0,0,0,.229,2.288,1.951,1.951,0,0,0,.829,1.23,2.985,2.985,0,0,0,1.63.4A2.826,2.826,0,0,0,711.677,528.195Z" transform="translate(-636.881 -519.7)" fill="#348888"/>
        <path id="Path_1058" data-name="Path 1058" d="M760.779,520.2v9.525h-1.945l-3.718-8.609h-.257v8.609H753.8V520.2h1.974l3.661,8.609h.286V520.2Z" transform="translate(-670.795 -520.057)" fill="#348888"/>
        <path id="Path_1059" data-name="Path 1059" d="M800.9,520.2h1.058v9.525H800.9Z" transform="translate(-704.423 -520.057)" fill="#348888"/>
        <path id="Path_1060" data-name="Path 1060" d="M827.273,529a2.837,2.837,0,0,1-1.087-1.6,10.436,10.436,0,0,1-.286-2.774,10.579,10.579,0,0,1,.286-2.774,2.8,2.8,0,0,1,1.058-1.6,3.685,3.685,0,0,1,2.2-.543,13.077,13.077,0,0,1,2.574.315l-.029.887a13.262,13.262,0,0,0-2.4-.257,3.121,3.121,0,0,0-1.63.372,1.794,1.794,0,0,0-.744,1.23,13.1,13.1,0,0,0-.2,2.488,9,9,0,0,0,.2,2.2,1.934,1.934,0,0,0,.772,1.2,3.143,3.143,0,0,0,1.745.4,12.393,12.393,0,0,0,2.288-.257l.029.915a12.118,12.118,0,0,1-2.517.286A3.745,3.745,0,0,1,827.273,529Z" transform="translate(-722.273 -519.7)" fill="#348888"/>
        <path id="Path_1061" data-name="Path 1061" d="M902.139,520.2v9.525H901.08v-8.409h-.2l-2.774,8.066h-1.173l-2.774-8.066h-.2v8.409H892.9V520.2h1.916l2.689,8.066,2.689-8.066Z" transform="translate(-770.109 -520.057)" fill="#348888"/>
        <path id="Path_1062" data-name="Path 1062" d="M948.116,529.024a2.79,2.79,0,0,1-1.173-1.573,9.337,9.337,0,0,1-.343-2.8,8.521,8.521,0,0,1,.372-2.8,2.858,2.858,0,0,1,1.173-1.6,4.145,4.145,0,0,1,2.231-.543,4.03,4.03,0,0,1,2.231.543,3.035,3.035,0,0,1,1.2,1.6,8.592,8.592,0,0,1,.372,2.832,9.335,9.335,0,0,1-.343,2.8,2.82,2.82,0,0,1-1.173,1.545,4.167,4.167,0,0,1-2.231.486A4.5,4.5,0,0,1,948.116,529.024Zm3.861-.83a2.034,2.034,0,0,0,.8-1.23,9.388,9.388,0,0,0,.229-2.288,9.823,9.823,0,0,0-.229-2.317,2.308,2.308,0,0,0-.829-1.287,2.6,2.6,0,0,0-1.6-.429,2.815,2.815,0,0,0-1.6.4,2.358,2.358,0,0,0-.829,1.287,8.507,8.507,0,0,0-.229,2.317,9.561,9.561,0,0,0,.229,2.288,1.951,1.951,0,0,0,.829,1.23,2.985,2.985,0,0,0,1.63.4A2.888,2.888,0,0,0,951.977,528.195Z" transform="translate(-808.449 -519.7)" fill="#348888"/>
        <path id="Path_1063" data-name="Path 1063" d="M999.363,528.881v.944H994.1V520.3h1.058v8.581Z" transform="translate(-842.363 -520.128)" fill="#348888"/>
        <path id="Path_1064" data-name="Path 1064" d="M1032.758,521.144v3.289h3.919v.915h-3.919v3.432h4.748v.944H1031.7V520.2h5.806v.944Z" transform="translate(-869.209 -520.057)" fill="#348888"/>
      </g>
    </g>
    <g id="Group_260" data-name="Group 260" transform="translate(137.827 411.49)">
      <path id="Path_1065" data-name="Path 1065" d="M463.8,461.259h-1.173a.887.887,0,0,0-.629.257.823.823,0,0,0-.257.6v4.233a.684.684,0,0,0,.286.6,1.027,1.027,0,0,0,.286.2,1.217,1.217,0,0,0,.315.057h4.09a.823.823,0,0,0,.6-.257.739.739,0,0,0,.257-.6v-4.233a2.019,2.019,0,0,1,.172-.8,1.881,1.881,0,0,1,.486-.658,2.559,2.559,0,0,1,.715-.458,2.089,2.089,0,0,1,.858-.172,2.3,2.3,0,0,1,.858.172,2.2,2.2,0,0,1,.715.458,1.978,1.978,0,0,1,.458.629.38.38,0,0,1,.086.2,1.286,1.286,0,0,0,.057.229,1.393,1.393,0,0,1,.029.343v4.262a.823.823,0,0,0,.257.6,1.739,1.739,0,0,0,.286.2,1.866,1.866,0,0,0,.486.057v1.2a3.576,3.576,0,0,1-1.03-.143,2.558,2.558,0,0,1-.715-.458,2.609,2.609,0,0,1-.486-.658,1.694,1.694,0,0,1-.143-.772v-4.262a.823.823,0,0,0-.257-.6,1.028,1.028,0,0,0-.286-.2,1.016,1.016,0,0,0-.286-.057h-.114a.72.72,0,0,0-.572.257,1.028,1.028,0,0,0-.2.286.745.745,0,0,0-.086.315v4.233a1.92,1.92,0,0,1-.172.8,1.881,1.881,0,0,1-.486.658,2.138,2.138,0,0,1-.686.429,2.381,2.381,0,0,1-.429.114,2.165,2.165,0,0,1-.429.029h-4.09a2.331,2.331,0,0,1-.887-.172,3.183,3.183,0,0,1-.686-.458,1.959,1.959,0,0,1-.458-.658,2.311,2.311,0,0,1-.143-.772v-4.433c0-.057.029-.143.029-.2a1.415,1.415,0,0,1,.114-.372,2.307,2.307,0,0,1,.486-.686,2.048,2.048,0,0,1,.715-.458A2.167,2.167,0,0,1,462.6,460h1.173v1.258Z" transform="translate(-460.4 -457.969)" fill="#348888"/>
      <path id="Path_1066" data-name="Path 1066" d="M507.762,486.43H503.7V485.2h4.062Z" transform="translate(-491.315 -475.961)" fill="#348888"/>
      <path id="Path_1067" data-name="Path 1067" d="M519.445,455.345v6.321a1.887,1.887,0,0,1-.172.772,1.815,1.815,0,0,1-.458.658,2.049,2.049,0,0,1-.715.458,4.009,4.009,0,0,1-.8.172h-.2v-1.2a1.049,1.049,0,0,0,.772-.257,1.03,1.03,0,0,0,.2-.286.726.726,0,0,0,.057-.343v-6.321h1.316ZM518.13,453.4h1.344v1.2H518.13Z" transform="translate(-500.882 -453.257)" fill="#348888"/>
      <path id="Path_1068" data-name="Path 1068" d="M539.738,468.623a2.454,2.454,0,0,1-.143.772,1.438,1.438,0,0,1-.458.629,2.048,2.048,0,0,1-.715.458,14.76,14.76,0,0,1-3.175.114v-1.2c1.659,0,2.546,0,2.66-.029a.894.894,0,0,0,.286-.143.739.739,0,0,0,.257-.6v-.143a1.1,1.1,0,0,1-.286.057l-.258.057-.286.029H533.5a2.09,2.09,0,0,1-.858-.172,2.219,2.219,0,0,1-.686-.458,2.187,2.187,0,0,1-.486-.658,1.888,1.888,0,0,1-.172-.772v-4.2a2.453,2.453,0,0,1,.143-.772,1.715,1.715,0,0,1,.458-.658,2.048,2.048,0,0,1,.715-.458,2.09,2.09,0,0,1,.858-.172h4.062a2.163,2.163,0,0,1,.429.029,2.107,2.107,0,0,1,.4.114,2.754,2.754,0,0,1,.715.458,1.813,1.813,0,0,1,.458.658,1.887,1.887,0,0,1,.172.772v6.293Zm-6.836-6.836a.823.823,0,0,0-.257.6v4.2a1.066,1.066,0,0,0,.057.343.787.787,0,0,0,.2.257.8.8,0,0,0,.6.229h4.062a1.477,1.477,0,0,0,.315-.057.951.951,0,0,0,.286-.172.823.823,0,0,0,.257-.6v-4.2a1.438,1.438,0,0,0-.057-.343.891.891,0,0,0-.2-.257.823.823,0,0,0-.6-.257H533.5a.782.782,0,0,0-.6.257Z" transform="translate(-511.021 -458.183)" fill="#348888"/>
      <path id="Path_1069" data-name="Path 1069" d="M569.174,466.521a.823.823,0,0,0,.257.6.594.594,0,0,0,.286.172,1.259,1.259,0,0,0,.286.057h.172v1.2a2.6,2.6,0,0,1-1.03-.143v.114a1.92,1.92,0,0,1-.172.8,1.815,1.815,0,0,1-.458.658,1.656,1.656,0,0,1-.715.429,3.879,3.879,0,0,1-.829.172H566.8v-1.2a.89.89,0,0,0,.315-.029c.057-.029.115-.029.172-.057a1.25,1.25,0,0,0,.286-.172.514.514,0,0,0,.172-.257.651.651,0,0,0,.086-.315V460.2h1.344Z" transform="translate(-536.367 -458.112)" fill="#348888"/>
      <path id="Path_1070" data-name="Path 1070" d="M582.09,486.43H578V485.2h4.062v1.23Z" transform="translate(-544.363 -475.961)" fill="#348888"/>
      <path id="Path_1071" data-name="Path 1071" d="M593.216,463.025a2.371,2.371,0,0,1-1.716.6v-1.2a1.049,1.049,0,0,0,.772-.257.823.823,0,0,0,.257-.6v-6.321h1.344v6.321a.823.823,0,0,0,.257.6.676.676,0,0,0,.257.172,1.7,1.7,0,0,0,.486.057v1.2a2.771,2.771,0,0,1-1.03-.172A1.817,1.817,0,0,1,593.216,463.025Zm-1.63-9.725h1.344v1.2h-1.344Zm1.916,0h1.344v1.2H593.5Z" transform="translate(-554.002 -453.186)" fill="#348888"/>
      <path id="Path_1072" data-name="Path 1072" d="M606.762,486.43H602.7V485.2h4.062Z" transform="translate(-561.998 -475.961)" fill="#348888"/>
      <path id="Path_1073" data-name="Path 1073" d="M623.137,467.808a1.938,1.938,0,0,1-.658.4,2.33,2.33,0,0,1-.887.172H615.3v-1.2h6.293a1.028,1.028,0,0,0,.315-.057.654.654,0,0,0,.286-.2.779.779,0,0,0,.257-.6v-1.4a.88.88,0,0,0-.858-.858H616.33v-2.031a2.184,2.184,0,0,1,.143-.772,1.958,1.958,0,0,1,.458-.658,2.348,2.348,0,0,1,.715-.458,1.641,1.641,0,0,1,.4-.114c.086,0,.172-.029.229-.029h4.233v1.2h-3.976a2.11,2.11,0,0,0-.343.057.763.763,0,0,0-.286.172.823.823,0,0,0-.257.6v.8h3.947a2.09,2.09,0,0,1,.858.172,2.349,2.349,0,0,1,.715.458,2.1,2.1,0,0,1,.458.658,1.919,1.919,0,0,1,.172.8v1.373a.61.61,0,0,0,.086.343,1,1,0,0,0,.172.257.762.762,0,0,0,.572.257h.2v1.2h-.172a2.051,2.051,0,0,1-.829-.172A1.1,1.1,0,0,1,623.137,467.808Z" transform="translate(-570.995 -457.969)" fill="#348888"/>
      <path id="Path_1074" data-name="Path 1074" d="M651.962,486.43H647.9V485.2h4.062Z" transform="translate(-594.27 -475.961)" fill="#348888"/>
      <path id="Path_1075" data-name="Path 1075" d="M663.7,452.9v8.381a1.888,1.888,0,0,1-.172.772,2.307,2.307,0,0,1-.486.686,2.049,2.049,0,0,1-.715.458,2.572,2.572,0,0,1-1.03.172v-1.23a2.053,2.053,0,0,0,.486-.057.581.581,0,0,0,.257-.172.823.823,0,0,0,.257-.6v-8.381h1.4Z" transform="translate(-603.837 -452.9)" fill="#348888"/>
      <path id="Path_1076" data-name="Path 1076" d="M678.918,454.487v7.723h.887a1.437,1.437,0,0,0,.343-.057.582.582,0,0,0,.257-.172.823.823,0,0,0,.257-.6V453h1.344v8.381a1.919,1.919,0,0,1-.172.8,2.308,2.308,0,0,1-.486.686,3.048,3.048,0,0,1-.343.286c-.114.057-.229.143-.372.2a2.084,2.084,0,0,1-.858.143H675.6v-1.23h1.974v-7.723h1.344Z" transform="translate(-614.047 -452.971)" fill="#348888"/>
      <path id="Path_1077" data-name="Path 1077" d="M704,453h1.344v10.411H704Z" transform="translate(-634.324 -452.971)" fill="#348888"/>
      <path id="Path_1078" data-name="Path 1078" d="M737.985,463.483a.485.485,0,0,1-.143.057c-.029,0-.086.029-.114.029a3.525,3.525,0,0,1-.572.057h-4.062a2.717,2.717,0,0,1-.572-.057,1.161,1.161,0,0,1-.286-.086,2.561,2.561,0,0,1-.715-.458,1.715,1.715,0,0,1-.458-.658,1.848,1.848,0,0,1-.143-.772v-4.2a1.888,1.888,0,0,1,.172-.772,1.816,1.816,0,0,1,.458-.658,2.757,2.757,0,0,1,.715-.458,2.933,2.933,0,0,1,.4-.114,2.163,2.163,0,0,1,.429-.029h4.062a2.6,2.6,0,0,1,.658.086,1.352,1.352,0,0,1,.572.286,2.1,2.1,0,0,1,.458.4,1.772,1.772,0,0,1,.315.486,1.7,1.7,0,0,1,.172.772v6.235a1.7,1.7,0,0,1-.172.772,2.605,2.605,0,0,1-.486.658,2.874,2.874,0,0,1-.686.458h0l-.114.057h0l-.257.114H727.6a2.189,2.189,0,0,1-.858-.172,2.348,2.348,0,0,1-.715-.458,1.891,1.891,0,0,1-.629-1.43V457.39a1.848,1.848,0,0,1,.629-1.43,2.755,2.755,0,0,1,.715-.458,2.09,2.09,0,0,1,.858-.172h1.173v1.2H727.6a.82.82,0,0,0-.6.229.952.952,0,0,0-.172.286,1.507,1.507,0,0,0-.086.343v6.235a.762.762,0,0,0,.086.343,2.514,2.514,0,0,0,.172.286.8.8,0,0,0,.6.229h9.582a.823.823,0,0,0,.572-.257.676.676,0,0,0,.172-.257.407.407,0,0,0,.057-.172v-.315Zm-5.234-6.893a1.027,1.027,0,0,0-.286.2.823.823,0,0,0-.257.6v4.2a1.438,1.438,0,0,0,.057.343c.029.057.057.086.086.143a.223.223,0,0,0,.114.114.923.923,0,0,0,.6.229h4.062a1.027,1.027,0,0,0,.315-.057,1.509,1.509,0,0,0,.286-.172.823.823,0,0,0,.257-.6v-4.2a1.434,1.434,0,0,0-.057-.343,1,1,0,0,0-.172-.257.823.823,0,0,0-.6-.257h-4.062A1.23,1.23,0,0,0,732.751,456.589Zm1.058-3.289h1.344v1.2h-1.344Zm2.059,0h1.344v1.2h-1.344Zm39.815,0h1.344v1.2h-1.344Zm2.031,0h1.344v1.2h-1.344Z" transform="translate(-649.603 -453.186)" fill="#348888"/>
      <path id="Path_1079" data-name="Path 1079" d="M788.509,468.695a2.452,2.452,0,0,1-.143.772,1.438,1.438,0,0,1-.458.629,2.048,2.048,0,0,1-.715.458,14.761,14.761,0,0,1-3.175.114V469.5c1.659,0,2.546,0,2.632-.029a1.34,1.34,0,0,0,.286-.143.739.739,0,0,0,.257-.6v-.143a1.1,1.1,0,0,1-.286.057l-.257.057-.286.029H782.3a2.09,2.09,0,0,1-.858-.172,2.218,2.218,0,0,1-.686-.458,2.183,2.183,0,0,1-.486-.658,1.887,1.887,0,0,1-.172-.772v-4.2a2.452,2.452,0,0,1,.143-.772,1.714,1.714,0,0,1,.458-.658,2.05,2.05,0,0,1,.715-.458,2.09,2.09,0,0,1,.858-.172h4.062a2.166,2.166,0,0,1,.429.029,2.107,2.107,0,0,1,.4.114,2.756,2.756,0,0,1,.715.458,1.813,1.813,0,0,1,.458.658,1.887,1.887,0,0,1,.172.772v4.2a1.068,1.068,0,0,0,.057.343,1.579,1.579,0,0,0,.2.257.8.8,0,0,0,.572.229h.172v1.2a2.436,2.436,0,0,1-.715-.086c-.029,0-.086-.029-.115-.029a.482.482,0,0,1-.143-.057v.2Zm-6.836-6.865a.823.823,0,0,0-.257.6v4.2a1.068,1.068,0,0,0,.057.343,1.574,1.574,0,0,0,.2.257.8.8,0,0,0,.6.229h4.062a1.477,1.477,0,0,0,.315-.057.953.953,0,0,0,.286-.172.823.823,0,0,0,.257-.6v-4.2a1.431,1.431,0,0,0-.057-.343.891.891,0,0,0-.2-.257.823.823,0,0,0-.6-.257h-4.062a1.027,1.027,0,0,0-.315.057A.653.653,0,0,0,781.673,461.83Z" transform="translate(-688.657 -458.255)" fill="#348888"/>
      <path id="Path_1080" data-name="Path 1080" d="M816.262,486.43H812.2V485.2h4.062Z" transform="translate(-711.576 -475.961)" fill="#348888"/>
      <path id="Path_1081" data-name="Path 1081" d="M830.148,467.909a2.909,2.909,0,0,1-.658.429,1.551,1.551,0,0,1-.429.114,2.212,2.212,0,0,1-.429.057H828.6a2.294,2.294,0,0,1-.858-.172,2.179,2.179,0,0,1-.372-.2,2.014,2.014,0,0,1-.286-.229,1.938,1.938,0,0,1-.658.4,2.77,2.77,0,0,1-1.03.172v-1.2a1.049,1.049,0,0,0,.772-.257.823.823,0,0,0,.257-.6V460.1h1.344v6.321a.576.576,0,0,0,.086.315,1.735,1.735,0,0,0,.2.286.851.851,0,0,0,.572.229h.057a1.258,1.258,0,0,0,.286-.057.952.952,0,0,0,.286-.172.823.823,0,0,0,.257-.6V460.1h1.344v6.321a1.434,1.434,0,0,0,.057.343.623.623,0,0,0,.2.257.823.823,0,0,0,.6.257,1.474,1.474,0,0,0,.315-.057.951.951,0,0,0,.286-.172.823.823,0,0,0,.257-.6v-6.321h1.344v6.321a.576.576,0,0,0,.086.315,1.733,1.733,0,0,0,.2.286.85.85,0,0,0,.572.229h.2v1.2a2.517,2.517,0,0,1-1-.172,2.177,2.177,0,0,1-.372-.2,2.011,2.011,0,0,1-.286-.229,2.184,2.184,0,0,1-.658.429,1.55,1.55,0,0,1-.429.114,2.508,2.508,0,0,1-.458.057h-.229c-.057,0-.143-.029-.257-.029-.086-.029-.229-.057-.372-.114a2.559,2.559,0,0,1-.458-.257l-.229-.315c-.172.143-.172.172-.086.143Z" transform="translate(-721.001 -458.041)" fill="#348888"/>
      <path id="Path_1082" data-name="Path 1082" d="M860.4,452.9v8.381a1.887,1.887,0,0,1-.172.772,2.306,2.306,0,0,1-.486.686,2.049,2.049,0,0,1-.715.458,2.572,2.572,0,0,1-1.03.172v-1.23a2.052,2.052,0,0,0,.486-.057.582.582,0,0,0,.258-.172.823.823,0,0,0,.257-.6v-8.381h1.4Z" transform="translate(-744.276 -452.9)" fill="#348888"/>
      <path id="Path_1083" data-name="Path 1083" d="M872.7,453h1.344v10.411H872.7Z" transform="translate(-754.771 -452.971)" fill="#348888"/>
      <path id="Path_1084" data-name="Path 1084" d="M902.137,467.909a1.7,1.7,0,0,1-.658.4,2.3,2.3,0,0,1-.858.172H896.5a2.7,2.7,0,0,1-.858-.143,1.54,1.54,0,0,1-.372-.2,3.034,3.034,0,0,1-.343-.286,2.219,2.219,0,0,1-.458-.686,1.888,1.888,0,0,1-.172-.772v-4.233a2.185,2.185,0,0,1,.143-.772,1.958,1.958,0,0,1,.458-.658,2.724,2.724,0,0,1,.744-.458,2.3,2.3,0,0,1,.858-.172h4.09a3,3,0,0,1,.858.143,2.349,2.349,0,0,1,.715.458,2.308,2.308,0,0,1,.486.686,1.919,1.919,0,0,1,.172.8v4.233a.761.761,0,0,0,.086.343,1.025,1.025,0,0,0,.2.286.948.948,0,0,0,.572.257h.2v1.2h-.229a2.053,2.053,0,0,1-.829-.172A2.785,2.785,0,0,1,902.137,467.909Zm-6.235-6.35a.823.823,0,0,0-.257.6v4.233a.88.88,0,0,0,.858.858h4.09a1.027,1.027,0,0,0,.315-.057,1.071,1.071,0,0,0,.286-.172,1.027,1.027,0,0,0,.2-.286.762.762,0,0,0,.086-.343v-4.233a.779.779,0,0,0-.257-.6.823.823,0,0,0-.6-.257H896.5a.782.782,0,0,0-.6.257Z" transform="translate(-770.193 -458.041)" fill="#348888"/>
      <path id="Path_1085" data-name="Path 1085" d="M930.962,486.43H926.9V485.2h4.062Z" transform="translate(-793.469 -475.961)" fill="#348888"/>
      <path id="Path_1086" data-name="Path 1086" d="M942.76,460.329v.715a2.113,2.113,0,0,1,.658-.429,2.6,2.6,0,0,1,1.144-.286h6.15a1.7,1.7,0,0,1,.915.257,2.239,2.239,0,0,1,.715.658,2.808,2.808,0,0,1,.486,1.2l.057.315v3.833a.823.823,0,0,0,.257.6.593.593,0,0,0,.286.172,1.016,1.016,0,0,0,.286.057h.2v1.2h-.172a2.154,2.154,0,0,1-.829-.172,1.7,1.7,0,0,1-.686-.458l-.086-.086.057.057a1.641,1.641,0,0,1-.572.429,1.747,1.747,0,0,1-.858.229h-7.151a1.747,1.747,0,0,1-.858-.229,1.492,1.492,0,0,1-.543-.429l-.029.029a2.613,2.613,0,0,1-.686.458,2.516,2.516,0,0,1-1,.172v-1.2a1.1,1.1,0,0,0,.744-.229,1.029,1.029,0,0,0,.2-.286.61.61,0,0,0,.086-.343V460.3h1.23Zm8.466,1.545a.858.858,0,0,0-.257-.286.38.38,0,0,0-.229-.086H944.59a1.156,1.156,0,0,0-.629.2,1.819,1.819,0,0,0-.572.572,2.915,2.915,0,0,0-.458,1,3.366,3.366,0,0,0-.114.572,4.64,4.64,0,0,0-.029.629v1.43a2.6,2.6,0,0,0,.086.658,1.451,1.451,0,0,0,.229.515c.086.114.172.229.258.257a.456.456,0,0,0,.229.086h7.151a.457.457,0,0,0,.229-.086,1.093,1.093,0,0,0,.257-.257,2.646,2.646,0,0,0,.143-.229c.029-.086.057-.172.086-.286a2.6,2.6,0,0,0,.086-.658v-2.832a1.18,1.18,0,0,0-.029-.343,1.289,1.289,0,0,0-.086-.315A1.081,1.081,0,0,0,951.226,461.873Z" transform="translate(-803.179 -458.183)" fill="#348888"/>
      <path id="Path_1087" data-name="Path 1087" d="M990.662,486.43H986.6V485.2h4.062Z" transform="translate(-836.093 -475.961)" fill="#348888"/>
      <path id="Path_1088" data-name="Path 1088" d="M1001.616,463.1a2.371,2.371,0,0,1-1.716.6v-1.2a1.049,1.049,0,0,0,.772-.257.823.823,0,0,0,.258-.6v-6.321h1.344v6.321a.823.823,0,0,0,.257.6.675.675,0,0,0,.257.172,1.7,1.7,0,0,0,.486.057v1.2a2.771,2.771,0,0,1-1.03-.172A2.128,2.128,0,0,1,1001.616,463.1Zm-.658-9.7h1.344v1.2h-1.344Z" transform="translate(-845.589 -453.257)" fill="#348888"/>
      <path id="Path_1089" data-name="Path 1089" d="M1015.09,486.43H1011V485.2h4.062v1.23Z" transform="translate(-853.514 -475.961)" fill="#348888"/>
      <path id="Path_1090" data-name="Path 1090" d="M1026.288,467.88c-.057.029-.086.086-.143.114a.6.6,0,0,1-.172.114,1.539,1.539,0,0,1-.372.2,1.949,1.949,0,0,1-.829.143h-.172v-1.2h.172a.8.8,0,0,0,.572-.229,1.03,1.03,0,0,0,.2-.286.762.762,0,0,0,.086-.343v-4.233a2.019,2.019,0,0,1,.172-.8,1.815,1.815,0,0,1,.458-.658,2.76,2.76,0,0,1,.715-.458,2.937,2.937,0,0,1,.4-.114,2.025,2.025,0,0,1,.429-.029h4.09a2.3,2.3,0,0,1,.858.172,2.049,2.049,0,0,1,.715.458,2.1,2.1,0,0,1,.458.658,1.847,1.847,0,0,1,.143.772v4.233a1.7,1.7,0,0,1-.172.772,2.185,2.185,0,0,1-.486.658,2.219,2.219,0,0,1-.686.458,2.09,2.09,0,0,1-.858.172h-4.09a2.3,2.3,0,0,1-.858-.172A1.816,1.816,0,0,1,1026.288,467.88Zm1.2-6.493a1.026,1.026,0,0,0-.286.2.823.823,0,0,0-.257.6v4.233a1.227,1.227,0,0,0,.057.343,1,1,0,0,0,.172.257.8.8,0,0,0,.6.229h4.09a1.028,1.028,0,0,0,.315-.057.953.953,0,0,0,.286-.172.739.739,0,0,0,.257-.6v-4.233a.823.823,0,0,0-.257-.6,1.073,1.073,0,0,0-.286-.172.566.566,0,0,0-.315-.057h-4.09A.494.494,0,0,0,1027.489,461.387Z" transform="translate(-863.224 -458.041)" fill="#348888"/>
    </g>
  </g>
</svg>
