<svg xmlns="http://www.w3.org/2000/svg" width="919.791" height="646.318" viewBox="0 0 919.791 646.318">
  <g id="_5865" data-name="5865" transform="translate(610.749 -431.488)">
    <g id="Group_2923" data-name="Group 2923" transform="translate(-610.749 431.488)">
      <path id="Path_2338" data-name="Path 2338" d="M1182.371,1739.513h-718.1a4.793,4.793,0,0,1-4.769-4.769v-4.974a4.793,4.793,0,0,1,4.769-4.769h718.1a4.793,4.793,0,0,1,4.769,4.769v4.974A4.76,4.76,0,0,1,1182.371,1739.513Z" transform="translate(-353.731 -1093.195)" fill="#c4dfe8"/>
      <g id="Group_2916" data-name="Group 2916" transform="translate(0 0)">
        <path id="Path_2339" data-name="Path 2339" d="M1902.8,718.586c16.974,13.026-7.282,31.692-14.051,36.41a149.394,149.394,0,0,1,4.564,21.538c5.282-8.872,3.59-19.333,8.564-23.692,5.59-4.872,14.615-5.795,13.333,8.615-1.026,11.436-15.59,16.154-21.59,17.641a128.965,128.965,0,0,1,.256,28.051c7.539-9.18,6.821-21.436,13.026-25.641,6.769-4.615,16.872-4.461,13.59,11.231-2.718,12.974-20.718,16.051-26.872,16.718a70.964,70.964,0,0,1-2.051,10.462,211.047,211.047,0,0,1-7.385,21.282c6.821-7.9,8.205-18.308,14.359-21.385,7.333-3.641,17.333-2.051,11.9,13.026-4.308,11.949-21.231,12.923-28.1,12.821a198.357,198.357,0,0,1-20.154,35.9c8.513-4.513,17.333-17.282,26.564-18.615,6.051-.872,9.077,2.359,10.564,5.231a9.145,9.145,0,0,1,.205,7.846c-6.308,14.308-31.231,9.333-38.667,7.487a189.934,189.934,0,0,1-26.872,29.949c4.41-2.308,11.077-5.795,14.461-7.795,5.333-3.128,14.154-4.513,19.333-1.59.205.1.41.256.616.359a9.332,9.332,0,0,1,3.128,11.538c-7.077,16.154-34.872,3.282-40.769.308a.71.71,0,0,1-.205.154c-21.744,18.564-39.9,25.436-40.667,25.743l-1.077-2.821c.154-.051,17.436-6.667,38-23.743-8.821-26.923,2.615-40.667,9.692-39.641,7.282,1.026,13.846,10.051,5.333,19.436a83.143,83.143,0,0,0-11.333,17.077,185.054,185.054,0,0,0,27.59-30.359c-22.974-29.949-3.179-42.461,4.872-37.9,8.154,4.667,7.59,11.59,2.051,20.667a45.433,45.433,0,0,0-5.743,15.538,198.582,198.582,0,0,0,19.9-35.179c-6.41-2-22.513-8.205-22.872-21.077-.41-16.051,9.538-14.41,15.385-8.667,5.385,5.333,2.41,17.333,8.359,27.744A209.678,209.678,0,0,0,1888.646,819c.051-.154,2.256-7.59,2.718-20.051-6.667-1.18-23.282-5.385-25.231-18-2.462-15.846,7.641-15.487,14.154-10.513,5.795,4.462,4.667,16.205,11.179,25.641a138.519,138.519,0,0,0-5.487-39.9c-6.923-1.282-22.923-5.538-24.872-17.949-2.461-15.846,7.641-15.487,14.154-10.513,5.9,4.513,4.615,16.513,11.436,26l.307-.1c-.1-4.359-.307-13.538-.615-17.949-.462-5.846,2.154-13.846,7.026-16.82A9.88,9.88,0,0,1,1902.8,718.586Z" transform="translate(-1001.34 -602.37)" fill="#06bfad"/>
        <path id="Path_2340" data-name="Path 2340" d="M1410.8,493.092c33.077-2.718,24.667,44.051,21.846,56.513a231.349,231.349,0,0,1,27.744,20c-3.179-15.692-16.051-25.949-14.872-36.1,1.333-11.385,10.769-21.9,24.359-4,10.718,14.205-1.026,34.82-6.41,42.769a196.134,196.134,0,0,1,29.538,32c-.923-18.41-14.513-31.744-11.795-43.077,2.923-12.41,14.718-22.718,27.333-1.231,10.41,17.744-7.077,40.051-13.436,47.282a104.081,104.081,0,0,1,8.564,14.154,342.19,342.19,0,0,1,13.692,32.1c-.41-16.205-9.692-29.641-5.795-39.487,4.667-11.846,17.744-20.461,27.231,2.615,7.487,18.256-10.923,36.974-18.923,44.051a310.9,310.9,0,0,1,14.308,62.256c5.077-14.1,1.846-37.949,11.077-49.128,6.051-7.333,12.872-6.769,17.59-5.026a14.331,14.331,0,0,1,8.41,8.82c7.693,22.974-26.154,43.282-36.666,48.923a295.624,295.624,0,0,1,.307,62.41c2.667-7.282,6.667-18.256,8.513-24.051,2.872-9.128,11.538-19.949,20.513-21.949a8.009,8.009,0,0,1,1.077-.205c6.923-1.077,13.385,3.385,15.641,10,8.718,25.9-36.666,40.1-46.512,42.872,0,.1-.051.256-.051.359-5.641,44-19.282,70.872-19.9,72l-4.154-2.154c.154-.256,13.128-25.846,18.923-66.923-38.2-21.744-39.385-49.487-30.256-55.641,9.436-6.41,26.41-2.872,26.41,16.769,0,11.385,2.616,23.385,4.821,31.436a288.006,288.006,0,0,0,.051-63.641c-57.641-10.462-47.949-45.487-33.9-48.564,14.2-3.128,20.82,5.385,23.949,21.59a69.556,69.556,0,0,0,9.59,23.795,307.889,307.889,0,0,0-13.795-61.128c-9.436,4.41-34.461,14.051-48.256-.359-17.231-18-4.1-26.513,8.667-25.949,11.692.513,20.872,17.385,38.513,23.179a335.972,335.972,0,0,0-15.333-36.872c-.1-.205-5.333-11.077-17.795-25.846-8.923,5.641-32.359,18.154-47.795,5.641-19.385-15.692-7.385-25.795,5.282-26.872,11.333-.974,22.256,13.744,39.538,17.795a215.748,215.748,0,0,0-47.9-40.154c-9.282,5.744-32.154,17.538-47.231,5.333-19.385-15.692-7.385-25.795,5.282-26.872,11.487-.974,22.564,14.154,40.307,17.949l.257-.41c-4.615-4.872-14.462-15.231-19.436-19.949-6.615-6.308-11.949-18.205-9.487-26.667A15.077,15.077,0,0,1,1410.8,493.092Z" transform="translate(-798.933 -492.978)" fill="#fee5bf"/>
        <g id="Group_2890" data-name="Group 2890" transform="translate(69.622 133.545)">
          <rect id="Rectangle_592" data-name="Rectangle 592" width="197.589" height="239.692" transform="matrix(-0.939, 0.345, -0.345, -0.939, 268.095, 258.313)" fill="#feb546"/>
          <rect id="Rectangle_593" data-name="Rectangle 593" width="98.769" height="239.692" transform="matrix(-0.939, 0.345, -0.345, -0.939, 268.064, 258.334)" fill="#f4a640"/>
          <g id="Group_2889" data-name="Group 2889" transform="translate(32.371)">
            <path id="Path_2341" data-name="Path 2341" d="M577.862,818.781h0a3.8,3.8,0,0,0,1.9-5.179A155.707,155.707,0,0,0,557.4,780.217c-20.872-23.333-44.513-31.692-68.41-24.1-13.231,4.205-23.077,12.41-29.231,24.41-13.949,27.128-5.128,65.641-1.795,77.9a3.811,3.811,0,0,0,4.872,2.615h0a3.813,3.813,0,0,0,2.513-4.615c-3.077-11.333-11.385-47.9,1.18-72.359A40.63,40.63,0,0,1,491.3,763.447c21.077-6.718,41.385.667,60.41,21.9a149.889,149.889,0,0,1,21.231,31.692A3.83,3.83,0,0,0,577.862,818.781Z" transform="translate(-452.137 -753.392)" fill="#daeef7"/>
          </g>
        </g>
        <path id="Path_2342" data-name="Path 2342" d="M1738.707,1299.5c-14.769,5.282-25.743,13.077-33.9,22.154,2.923,6,6.257,13.179,6.257,13.179l-11.487-6.615c-26.769,37.589-13.231,91.077-13.231,91.077,32.615-11.128,49.795-27.23,58.1-44.051-3.333-3.385-8.41-8.359-8.41-8.359l10.769,2.872a68.353,68.353,0,0,0,4.256-25.231c-5.641-1.436-11.948-3.231-11.948-3.231l11.487-4.564A102.168,102.168,0,0,0,1738.707,1299.5Z" transform="translate(-949.76 -885.9)" fill="#55769f"/>
        <g id="Group_2891" data-name="Group 2891" transform="translate(683.87 434.625)">
          <path id="Path_2343" data-name="Path 2343" d="M1801.62,1342.448c-32.718-4.564-60.82-.82-84.872,8.154-.41,14-1.179,30.667-1.179,30.667l-14.923-23.641c-86.769,43.9-113.846,156.923-113.846,156.923,71.692,11.231,119.538-2,151.436-25.282-2.923-9.59-7.436-23.846-7.436-23.846l17.333,15.9a144.529,144.529,0,0,0,32.615-42.923c-9.077-8.2-19.128-17.743-19.128-17.743l25.846,2.718C1803.774,1381.883,1801.62,1342.448,1801.62,1342.448Z" transform="translate(-1586.8 -1340.498)" fill="#02ccc0"/>
          <path id="Path_2344" data-name="Path 2344" d="M1738.235,1491.072c-2.923-9.59-7.436-23.846-7.436-23.846l17.333,15.9a144.528,144.528,0,0,0,32.615-42.923c-9.077-8.205-19.128-17.744-19.128-17.744l25.846,2.718c16.308-41.539,14.205-80.974,14.205-80.974-106.256,42.308-214.871,172.1-214.871,172.1C1658.492,1527.584,1706.338,1514.354,1738.235,1491.072Z" transform="translate(-1586.8 -1342.302)" fill="#06bfad"/>
        </g>
        <g id="Group_2892" data-name="Group 2892" transform="translate(721.255 547.114)">
          <path id="Path_2345" data-name="Path 2345" d="M1842.466,1596.184c-15.077-15.9-31.179-25.641-47.333-30.974-6,7.077-13.333,15.436-13.333,15.436l2.051-18.462c-63.179-13.231-124.051,34.154-124.051,34.154,32.513,35.539,62.769,48.513,88.974,49.692,2.462-6.205,6.052-15.436,6.052-15.436l2.41,15.436a95.068,95.068,0,0,0,34.667-8.718c-1.282-8-2.564-17.128-2.564-17.128l12.256,12.1A144.425,144.425,0,0,0,1842.466,1596.184Z" transform="translate(-1659.749 -1559.852)" fill="#108282"/>
          <path id="Path_2346" data-name="Path 2346" d="M1748.674,1671.151c2.462-6.2,6.051-15.436,6.051-15.436l2.41,15.436a95.071,95.071,0,0,0,34.667-8.718c-1.282-8-2.564-17.128-2.564-17.128l12.256,12.1a142.463,142.463,0,0,0,40.923-36.1c-72.615-22.1-182.718.154-182.718.154C1692.213,1657.049,1722.469,1670.023,1748.674,1671.151Z" transform="translate(-1659.7 -1585.025)" fill="#108282"/>
        </g>
        <path id="Path_2347" data-name="Path 2347" d="M1747.751,1375.192c-3.333-3.385-8.41-8.359-8.41-8.359l10.769,2.872a68.353,68.353,0,0,0,4.256-25.231c-5.641-1.436-11.949-3.231-11.949-3.231l11.487-4.564a102.135,102.135,0,0,0-11.9-37.179c-35.333,41.231-52.307,119.795-52.307,119.795C1722.315,1408.167,1739.495,1392.064,1747.751,1375.192Z" transform="translate(-953.061 -885.9)" fill="#07085b"/>
        <g id="Group_2893" data-name="Group 2893" transform="translate(0 259.114)">
          <path id="Path_2348" data-name="Path 2348" d="M463.327,1149.045,357.379,1003.25a12.139,12.139,0,0,0-16.974-2.667l-82.154,59.744a12.139,12.139,0,0,0-2.667,16.974l106,145.795a12.139,12.139,0,0,0,16.974,2.667l82.154-59.744A12.13,12.13,0,0,0,463.327,1149.045Z" transform="translate(-253.251 -998.251)" fill="#108282"/>
          <rect id="Rectangle_594" data-name="Rectangle 594" width="204.564" height="32.051" transform="translate(43.53 34.013) rotate(53.978)" fill="#fff"/>
          <path id="Path_2349" data-name="Path 2349" d="M440.918,1096.787l-41.179-56.615a1.629,1.629,0,0,0-2.256-.359l-.41.256a1.628,1.628,0,0,0-.359,2.256l41.179,56.615a1.629,1.629,0,0,0,2.256.359l.41-.256A1.584,1.584,0,0,0,440.918,1096.787Z" transform="translate(-322.996 -1018.352)" fill="#fff"/>
          <path id="Path_2350" data-name="Path 2350" d="M448.187,1076.39l-33.949-46.718a1.628,1.628,0,0,0-2.256-.359l-.41.256a1.629,1.629,0,0,0-.359,2.256l33.949,46.718a1.628,1.628,0,0,0,2.256.359l.41-.256A1.628,1.628,0,0,0,448.187,1076.39Z" transform="translate(-330.06 -1013.237)" fill="#fff"/>
          <path id="Path_2351" data-name="Path 2351" d="M469.718,1075.887l-41.179-56.615a1.629,1.629,0,0,0-2.256-.359l-.41.256a1.629,1.629,0,0,0-.359,2.256l41.179,56.615a1.629,1.629,0,0,0,2.256.359l.41-.256A1.629,1.629,0,0,0,469.718,1075.887Z" transform="translate(-337.027 -1008.17)" fill="#fff"/>
          <path id="Path_2352" data-name="Path 2352" d="M592.9,1263.72l-12.923-17.795a7.117,7.117,0,0,0-9.9-1.59l-6.256,4.564a7.116,7.116,0,0,0-1.59,9.9l12.923,17.795a7.116,7.116,0,0,0,9.9,1.59l6.256-4.564A7.026,7.026,0,0,0,592.9,1263.72Z" transform="translate(-403.134 -1117.49)" fill="#333"/>
        </g>
        <g id="Group_2894" data-name="Group 2894" transform="translate(657.592 281.168)">
          <path id="Path_2353" data-name="Path 2353" d="M1656.912,1045.433l-118.359,135.9a12.176,12.176,0,0,0,1.179,17.179l76.615,66.718a12.176,12.176,0,0,0,17.18-1.179l118.359-135.9a12.176,12.176,0,0,0-1.18-17.179l-76.615-66.718A12.176,12.176,0,0,0,1656.912,1045.433Z" transform="translate(-1535.557 -1041.257)" fill="#55769f"/>
          <rect id="Rectangle_595" data-name="Rectangle 595" width="204.564" height="32.051" transform="translate(44.802 192.66) rotate(-48.949)" fill="#333"/>
          <path id="Path_2354" data-name="Path 2354" d="M1630.832,1255.585l-46,52.821a1.612,1.612,0,0,0,.154,2.256l.359.308a1.612,1.612,0,0,0,2.256-.154l46-52.821a1.612,1.612,0,0,0-.154-2.256l-.359-.308A1.618,1.618,0,0,0,1630.832,1255.585Z" transform="translate(-1559.374 -1145.41)" fill="#333"/>
          <path id="Path_2355" data-name="Path 2355" d="M1609.38,1261.966l-37.948,43.538a1.612,1.612,0,0,0,.154,2.256l.359.308a1.612,1.612,0,0,0,2.256-.154l37.949-43.538a1.612,1.612,0,0,0-.154-2.256l-.359-.308A1.572,1.572,0,0,0,1609.38,1261.966Z" transform="translate(-1552.845 -1148.508)" fill="#333"/>
          <path id="Path_2356" data-name="Path 2356" d="M1604.031,1232.266l-46,52.82a1.612,1.612,0,0,0,.154,2.256l.359.308a1.612,1.612,0,0,0,2.257-.154l46-52.82a1.613,1.613,0,0,0-.154-2.256l-.359-.307A1.567,1.567,0,0,0,1604.031,1232.266Z" transform="translate(-1546.317 -1134.039)" fill="#333"/>
          <path id="Path_2357" data-name="Path 2357" d="M1757.008,1087.693l-14.461,16.615a7.117,7.117,0,0,0,.667,10l5.846,5.077a7.117,7.117,0,0,0,10-.667l14.461-16.615a7.116,7.116,0,0,0-.667-10l-5.846-5.077A7.074,7.074,0,0,0,1757.008,1087.693Z" transform="translate(-1635.55 -1062.697)" fill="#333"/>
        </g>
        <g id="Group_2895" data-name="Group 2895" transform="translate(135.559 348.934)">
          <path id="Path_2358" data-name="Path 2358" d="M534.108,1173.5c17.026,6.821,29.59,16.359,38.718,27.282-3.692,6.872-7.9,15.128-7.9,15.128l13.692-7.282c29.795,45.077,11.744,107.077,11.744,107.077-37.692-14.307-57.128-33.846-66.154-53.9,4.051-3.846,10.154-9.487,10.154-9.487l-12.718,2.872A79.72,79.72,0,0,1,517.7,1225.5c6.615-1.487,14.1-3.282,14.1-3.282l-13.231-5.795A121.09,121.09,0,0,1,534.108,1173.5Z" transform="translate(-517.591 -1173.448)" fill="#55769f"/>
          <path id="Path_2359" data-name="Path 2359" d="M524.411,1261.759c4.051-3.846,10.154-9.487,10.154-9.487l-12.718,2.872a79.721,79.721,0,0,1-3.949-29.692c6.615-1.487,14.1-3.282,14.1-3.282l-13.231-5.795a119.848,119.848,0,0,1,15.436-42.974c39.641,49.692,56.308,142.2,56.308,142.2C552.821,1301.348,533.385,1281.759,524.411,1261.759Z" transform="translate(-517.688 -1173.4)" fill="#07085b"/>
        </g>
        <g id="Group_2896" data-name="Group 2896" transform="translate(5.767 385.593)">
          <path id="Path_2360" data-name="Path 2360" d="M264.549,1247.559c38.205-5.795,71.128-1.795,99.436,8.359.667,16.41,1.795,35.9,1.795,35.9l17.179-27.846c102.154,50.2,135.333,182.051,135.333,182.051-83.743,14.154-139.9-.718-177.538-27.538,3.282-11.282,8.359-28,8.359-28l-20.051,18.82a168.215,168.215,0,0,1-38.718-49.744c10.462-9.692,22.154-21.026,22.154-21.026l-30.205,3.538C262.6,1293.713,264.549,1247.559,264.549,1247.559Z" transform="translate(-264.496 -1244.885)" fill="#02ccc0"/>
          <path id="Path_2361" data-name="Path 2361" d="M340.8,1421.074c3.282-11.282,8.359-28,8.359-28l-20.051,18.82a168.215,168.215,0,0,1-38.718-49.744c10.461-9.692,22.154-21.026,22.154-21.026l-30.205,3.539c-19.641-48.41-17.692-94.564-17.692-94.564,124.923,48.1,253.692,198.461,253.692,198.461C434.546,1462.715,378.444,1447.895,340.8,1421.074Z" transform="translate(-264.545 -1247.426)" fill="#06bfad"/>
        </g>
        <g id="Group_2897" data-name="Group 2897" transform="translate(33.153 535.14)">
          <path id="Path_2362" data-name="Path 2362" d="M318,1565.834c20.205-15.795,40.513-24.256,60.205-27.59,5.744,9.282,12.769,20.154,12.769,20.154l.821-21.692c75.384-4.308,137.589,61.128,137.589,61.128-43.795,35.487-81.077,45.231-111.59,42-1.795-7.59-4.308-18.923-4.308-18.923L408,1638.347a111.675,111.675,0,0,1-38.615-16.154c2.872-9.026,5.949-19.385,5.949-19.385l-16.308,11.9A167.459,167.459,0,0,1,318,1565.834Z" transform="translate(-317.949 -1536.503)" fill="#feb546"/>
          <path id="Path_2363" data-name="Path 2363" d="M417.746,1665.467c-1.795-7.59-4.308-18.923-4.308-18.923l-5.487,17.436a111.677,111.677,0,0,1-38.615-16.154c2.872-9.026,5.949-19.385,5.949-19.385l-16.308,11.9a167.872,167.872,0,0,1-41.077-48.872c87.9-12.974,211.384,32,211.384,32C485.541,1658.954,448.259,1668.7,417.746,1665.467Z" transform="translate(-317.9 -1562.135)" fill="#f4a640"/>
        </g>
        <path id="Path_2365" data-name="Path 2365" d="M989.374,818.4s1.231,12.308,10.974,13.128c-9.692.872-10.974,13.128-10.974,13.128s-1.231-12.308-10.974-13.128C988.092,830.708,989.374,818.4,989.374,818.4Z" transform="translate(-606.529 -651.517)" fill="#feb546"/>
        <path id="Path_2367" data-name="Path 2367" d="M340.226,545.3s1.282,12.41,11.026,13.282c-9.795.872-11.026,13.282-11.026,13.282s-1.282-12.41-11.026-13.282C338.944,557.71,340.226,545.3,340.226,545.3Z" transform="translate(-290.252 -518.468)" fill="#07085b"/>
        <path id="Path_2368" data-name="Path 2368" d="M617.849,633.9s1.385,13.385,11.949,14.308c-10.564.923-11.949,14.308-11.949,14.308s-1.333-13.385-11.949-14.308C616.515,647.285,617.849,633.9,617.849,633.9Z" transform="translate(-425.055 -561.633)" fill="#02ccc0"/>
        <path id="Path_2372" data-name="Path 2372" d="M1733.949,501.2s1.333,13.385,11.949,14.308c-10.564.923-11.949,14.308-11.949,14.308s-1.333-13.384-11.949-14.308C1732.564,514.585,1733.949,501.2,1733.949,501.2Z" transform="translate(-968.797 -496.984)" fill="#ff5b7e"/>
        <path id="Path_2373" data-name="Path 2373" d="M1239.521,641.4s.769,7.641,6.821,8.154c-6.051.513-6.821,8.154-6.821,8.154s-.769-7.641-6.821-8.154C1238.7,649.041,1239.521,641.4,1239.521,641.4Z" transform="translate(-730.419 -565.286)" fill="#ff5b7e"/>
        <g id="Group_2908" data-name="Group 2908" transform="translate(208.127 235.395)">
          <path id="Path_2374" data-name="Path 2374" d="M1184.022,1349.538H677.972a18.888,18.888,0,0,1-18.872-18.872V970.872A18.888,18.888,0,0,1,677.972,952h506.05a18.888,18.888,0,0,1,18.872,18.872v359.794A18.888,18.888,0,0,1,1184.022,1349.538Z" transform="translate(-659.1 -952)" fill="#333"/>
          <g id="Group_2906" data-name="Group 2906" transform="translate(14.103 15.692)">
            <path id="Path_2375" data-name="Path 2375" d="M1177.573,1348.958H692.6a6.008,6.008,0,0,1-6-6V988.6a6.008,6.008,0,0,1,6-6h484.974Z" transform="translate(-686.6 -982.6)" fill="#daeef7"/>
            <rect id="Rectangle_596" data-name="Rectangle 596" width="447.999" height="311.487" transform="translate(19.846 48.564)" fill="#fff"/>
            <path id="Path_2376" data-name="Path 2376" d="M1173.35,1058.385v-23.077A14.314,14.314,0,0,0,1159.043,1021H739.608a14.313,14.313,0,0,0-14.308,14.308v23.077Z" transform="translate(-705.454 -1001.308)" fill="#348888"/>
            <path id="Path_2377" data-name="Path 2377" d="M1370.423,1057.954H1193.4a7.9,7.9,0,0,1-7.9-7.9V1047.7a7.9,7.9,0,0,1,7.9-7.9h177.025a7.9,7.9,0,0,1,7.9,7.9v2.359A7.9,7.9,0,0,1,1370.423,1057.954Z" transform="translate(-929.654 -1010.467)" fill="#fff"/>
            <path id="Path_2378" data-name="Path 2378" d="M782.428,1048.965a7.913,7.913,0,1,1-6.821-6.82A7.918,7.918,0,0,1,782.428,1048.965Z" transform="translate(-725.608 -1011.58)" fill="#fff"/>
            <path id="Path_2379" data-name="Path 2379" d="M849.628,1048.965a7.913,7.913,0,1,1-6.82-6.82A7.918,7.918,0,0,1,849.628,1048.965Z" transform="translate(-758.346 -1011.58)" fill="#fff"/>
            <path id="Path_2380" data-name="Path 2380" d="M916.828,1048.965a7.913,7.913,0,1,1-6.82-6.82A7.918,7.918,0,0,1,916.828,1048.965Z" transform="translate(-791.085 -1011.58)" fill="#fff"/>
            <g id="Group_2902" data-name="Group 2902" transform="translate(162.615 104.41)">
              <path id="Path_2381" data-name="Path 2381" d="M1161.956,1309.482h-154a4.246,4.246,0,0,1-4.257-4.257V1190.456a4.246,4.246,0,0,1,4.257-4.256h154a4.246,4.246,0,0,1,4.257,4.256v114.769A4.246,4.246,0,0,1,1161.956,1309.482Z" transform="translate(-1003.7 -1186.2)" fill="#daeef7"/>
              <g id="Group_2901" data-name="Group 2901" transform="translate(28.087 19.775)">
                <g id="Group_2900" data-name="Group 2900">
                  <g id="Group_2898" data-name="Group 2898" transform="translate(26.528 69.199)">
                    <path id="Path_2382" data-name="Path 2382" d="M1117.482,1374.264a7.282,7.282,0,1,1,7.282-7.282A7.31,7.31,0,0,1,1117.482,1374.264Zm0-12.359a5.077,5.077,0,1,0,5.077,5.077A5.089,5.089,0,0,0,1117.482,1361.905Z" transform="translate(-1110.2 -1359.7)" fill="#348888"/>
                  </g>
                  <g id="Group_2899" data-name="Group 2899" transform="translate(55.913 69.199)">
                    <path id="Path_2383" data-name="Path 2383" d="M1174.782,1374.264a7.282,7.282,0,1,1,7.282-7.282A7.31,7.31,0,0,1,1174.782,1374.264Zm0-12.359a5.077,5.077,0,1,0,5.077,5.077A5.088,5.088,0,0,0,1174.782,1361.905Z" transform="translate(-1167.5 -1359.7)" fill="#348888"/>
                  </g>
                  <path id="Path_2384" data-name="Path 2384" d="M1164.9,1225.5h0a1.175,1.175,0,0,0-1.333-.718l-20.256,4.41a1.053,1.053,0,0,0-.821.769l-2.051,10.308a1.107,1.107,0,0,1-1.077.821h-79.795a.978.978,0,0,0-1.026,1.282l17.026,41.487a1.07,1.07,0,0,0,1.026.667h53.692c.667,0,1.231.564,1.077,1.128l-1.128,5.436a1.107,1.107,0,0,1-1.077.82H1083.87a1.047,1.047,0,0,0-1.128.974h0a1.082,1.082,0,0,0,1.128.974h47.077a1.025,1.025,0,0,0,1.077-.82l10.205-50.718.256-1.18h0l1.9-9.538a1.053,1.053,0,0,1,.821-.769l18.82-4.1A1.131,1.131,0,0,0,1164.9,1225.5Zm-96.513,31.539h13.436a1.065,1.065,0,0,1,1.077.769l2.462,10.615a1.023,1.023,0,0,1-1.077,1.18h-11.59a1.071,1.071,0,0,1-1.026-.667l-4.359-10.615A1.03,1.03,0,0,1,1068.383,1257.038Zm18,0h13.744a1.047,1.047,0,0,1,1.128.974v10.615a1.082,1.082,0,0,1-1.128.974H1088.9a1.065,1.065,0,0,1-1.077-.769l-2.461-10.615C1085.152,1257.6,1085.665,1257.038,1086.383,1257.038Zm17.077-2.923v-10.1a1.082,1.082,0,0,1,1.128-.974h13.744a1.064,1.064,0,0,1,1.128,1.077l-1.231,10.1a1.04,1.04,0,0,1-1.128.872h-12.461A1.065,1.065,0,0,1,1103.46,1254.115Zm14.205,4-1.333,10.616a1.04,1.04,0,0,1-1.128.872h-10.667a1.047,1.047,0,0,1-1.128-.974v-10.615a1.082,1.082,0,0,1,1.128-.974h12C1117.2,1257.038,1117.767,1257.5,1117.665,1258.114Zm-17.539-3.026h-14.615a1.065,1.065,0,0,1-1.077-.769l-2.359-10.1a1.023,1.023,0,0,1,1.077-1.18h17.025a1.047,1.047,0,0,1,1.128.974v10.1A1.167,1.167,0,0,1,1100.126,1255.089Zm1.077,17.385v9.128a1.083,1.083,0,0,1-1.128.974h-8.205a1.065,1.065,0,0,1-1.077-.769l-2.154-9.128a1.023,1.023,0,0,1,1.077-1.179h10.359A1.084,1.084,0,0,1,1101.2,1272.474Zm3.385-.923h10.205a1.064,1.064,0,0,1,1.128,1.077l-1.128,9.128a1.04,1.04,0,0,1-1.128.872h-9.077a1.047,1.047,0,0,1-1.128-.974v-9.128A1.047,1.047,0,0,1,1104.588,1271.55Zm14.667,0h13.487c.667,0,1.231.564,1.077,1.128l-1.846,9.128a1.107,1.107,0,0,1-1.077.821h-12.718a1.064,1.064,0,0,1-1.128-1.077l1.128-9.128A.988.988,0,0,1,1119.255,1271.55Zm-.615-3.026,1.333-10.615a1.04,1.04,0,0,1,1.128-.872h14.615c.667,0,1.231.564,1.077,1.128l-2.154,10.615a1.107,1.107,0,0,1-1.077.821h-13.795C1119.049,1269.6,1118.537,1269.089,1118.639,1268.525Zm17.795-13.436h-14.923a1.064,1.064,0,0,1-1.128-1.077l1.231-10.1a1.04,1.04,0,0,1,1.128-.872h15.743c.667,0,1.231.564,1.077,1.128l-2.051,10.1A1.025,1.025,0,0,1,1136.434,1255.089Zm-56.769-11.282,2.359,10.1a1.023,1.023,0,0,1-1.077,1.18h-14.154a1.07,1.07,0,0,1-1.026-.667l-4.154-10.1a.978.978,0,0,1,1.026-1.282h15.9A1.086,1.086,0,0,1,1079.665,1243.807Zm-5.333,27.744H1085.2a1.065,1.065,0,0,1,1.077.769l2.154,9.128a1.023,1.023,0,0,1-1.077,1.18h-9.282a1.071,1.071,0,0,1-1.026-.667l-3.744-9.128A.965.965,0,0,1,1074.332,1271.55Z" transform="translate(-1058.47 -1224.762)" fill="#348888"/>
                </g>
              </g>
            </g>
            <g id="Group_2904" data-name="Group 2904" transform="translate(181.692 316.82)">
              <path id="Path_2385" data-name="Path 2385" d="M1155,1623.938H1051.156a10.253,10.253,0,0,1-10.256-10.256v-3.026a10.253,10.253,0,0,1,10.256-10.256H1155a10.254,10.254,0,0,1,10.256,10.256v3.026A10.221,10.221,0,0,1,1155,1623.938Z" transform="translate(-1040.9 -1600.4)" fill="#348888"/>
              <g id="Group_2903" data-name="Group 2903" transform="translate(31.897 6.359)">
                <path id="Path_2386" data-name="Path 2386" d="M1109.767,1620.18a4.5,4.5,0,0,1-.1.872,3.133,3.133,0,0,1-.359.718,2.694,2.694,0,0,1-.513.564,3.274,3.274,0,0,1-.718.41,3.839,3.839,0,0,1-.82.256,5.779,5.779,0,0,1-1.026.1h-2.615a.952.952,0,0,1-.359-.1.5.5,0,0,1-.154-.41v-9.077c0-.2.051-.359.154-.41a.432.432,0,0,1,.359-.1h2.308a6.019,6.019,0,0,1,1.487.154,1.981,1.981,0,0,1,.974.513,1.82,1.82,0,0,1,.564.82,2.378,2.378,0,0,1,.205,1.077,2.594,2.594,0,0,1-.1.667,3.136,3.136,0,0,1-.256.615,2.011,2.011,0,0,1-.41.513,2.124,2.124,0,0,1-.564.359,2.42,2.42,0,0,1,.769.307,2.056,2.056,0,0,1,.615.513,1.85,1.85,0,0,1,.41.769A2.044,2.044,0,0,1,1109.767,1620.18Zm-2.051-4.513a2.6,2.6,0,0,0-.1-.667,1.064,1.064,0,0,0-.308-.513,1.22,1.22,0,0,0-.564-.308,4.612,4.612,0,0,0-.923-.1h-1.385v3.282h1.539a1.8,1.8,0,0,0,.82-.154,1.307,1.307,0,0,0,.513-.359,1.012,1.012,0,0,0,.308-.564A1.3,1.3,0,0,0,1107.715,1615.667Zm.615,4.564a2.124,2.124,0,0,0-.154-.821,2.276,2.276,0,0,0-.41-.564,2.35,2.35,0,0,0-.718-.359,3.005,3.005,0,0,0-1.026-.1h-1.59v3.539h1.949a3.969,3.969,0,0,0,.82-.1,3.441,3.441,0,0,0,.615-.307,2.017,2.017,0,0,0,.41-.513A3.116,3.116,0,0,0,1108.331,1620.231Z" transform="translate(-1103.1 -1612.897)" fill="#fff"/>
                <path id="Path_2387" data-name="Path 2387" d="M1127.641,1619.359a5.245,5.245,0,0,1-.256,1.641,4.991,4.991,0,0,1-.769,1.231,3.354,3.354,0,0,1-1.231.769,5.253,5.253,0,0,1-1.641.256,4.84,4.84,0,0,1-1.539-.256,3.043,3.043,0,0,1-1.18-.718,3.914,3.914,0,0,1-.769-1.179,4.093,4.093,0,0,1-.256-1.641v-6.256c0-.051,0-.1.051-.1,0-.051.051-.051.1-.051s.1-.052.205-.052h.615c.1,0,.154.052.205.052a.179.179,0,0,1,.1.051c0,.051.051.051.051.1v6.1a4.481,4.481,0,0,0,.154,1.231,1.882,1.882,0,0,0,.513.872,1.575,1.575,0,0,0,.769.513,3.3,3.3,0,0,0,1.026.154,3.082,3.082,0,0,0,1.026-.154,1.946,1.946,0,0,0,1.231-1.384,4.11,4.11,0,0,0,.154-1.18v-6.154c0-.051,0-.1.051-.1,0-.051.051-.051.1-.051s.1-.052.205-.052h.615c.1,0,.154.052.205.052a.179.179,0,0,1,.1.051c0,.051.051.051.051.1v6.154Z" transform="translate(-1111.333 -1612.897)" fill="#fff"/>
                <path id="Path_2388" data-name="Path 2388" d="M1145.641,1622.538v.257a.518.518,0,0,1-.051.154c-.051.051-.051.1-.1.1s-.052.052-.1.052h-4.872a.955.955,0,0,1-.359-.1.506.506,0,0,1-.154-.41v-9.077c0-.2.051-.359.154-.41a.433.433,0,0,1,.359-.1h4.821c.051,0,.1,0,.1.051.052,0,.052.051.1.1,0,.051.051.1.051.154v.513c0,.051-.051.1-.051.154s-.051.051-.1.1c-.051,0-.051.052-.1.052h-3.948v3.179h3.385c.051,0,.1,0,.1.052.051,0,.051.051.1.1a.187.187,0,0,1,.052.154v.513c0,.051-.052.1-.052.154s-.051.051-.1.1c-.051,0-.051.052-.1.052h-3.385v3.641h4c.051,0,.1,0,.1.051.051,0,.051.051.1.1a.188.188,0,0,1,.051.154Z" transform="translate(-1121.077 -1612.897)" fill="#fff"/>
                <path id="Path_2389" data-name="Path 2389" d="M1169.844,1622.441a.384.384,0,0,1-.051.256c-.051.051-.1.154-.154.154a.267.267,0,0,1-.205.1c-.1,0-.154.051-.205.051h-.462a.76.76,0,0,1-.359-.051l-.308-.154a.868.868,0,0,1-.308-.308,4.5,4.5,0,0,1-.308-.513l-3.077-5.743a8.276,8.276,0,0,0-.513-.923c-.154-.308-.308-.667-.462-.974h0v8.41c0,.051,0,.051-.051.1,0,.051-.051.051-.1.1-.051,0-.1.051-.205.051h-.615c-.051,0-.154-.051-.205-.051a.11.11,0,0,1-.1-.1c0-.051-.051-.051-.051-.1v-9.333a.627.627,0,0,1,.154-.462.583.583,0,0,1,.41-.154h.667a1,1,0,0,1,.41.052c.1.051.205.051.308.154.1.051.154.154.256.257a2.868,2.868,0,0,1,.256.41l2.359,4.461a5.6,5.6,0,0,1,.41.769c.154.257.256.513.41.769.1.256.256.513.359.718.1.256.257.462.359.718h0v-8.052c0-.051,0-.051.051-.1,0-.051.051-.051.1-.1.051,0,.1-.051.205-.051h.667c.1,0,.154.051.205.051a.11.11,0,0,1,.1.1c0,.051.051.051.051.1Z" transform="translate(-1131.844 -1612.8)" fill="#fff"/>
                <path id="Path_2390" data-name="Path 2390" d="M1190.426,1617.826a7.388,7.388,0,0,1-.308,2.205,4.424,4.424,0,0,1-.872,1.692,3.791,3.791,0,0,1-1.436,1.077,4.807,4.807,0,0,1-2,.359,4.414,4.414,0,0,1-1.949-.359,4.5,4.5,0,0,1-1.385-.974,4.66,4.66,0,0,1-.821-1.59,9.3,9.3,0,0,1-.256-2.205,6.816,6.816,0,0,1,.308-2.154,4.192,4.192,0,0,1,.872-1.641,4.237,4.237,0,0,1,1.436-1.077,4.81,4.81,0,0,1,2-.359,4.565,4.565,0,0,1,1.949.359,3.959,3.959,0,0,1,1.385.974,4.655,4.655,0,0,1,.821,1.59A8.107,8.107,0,0,1,1190.426,1617.826Zm-1.436.051a7.6,7.6,0,0,0-.154-1.59,3.2,3.2,0,0,0-.513-1.282,2.979,2.979,0,0,0-.923-.872,3.2,3.2,0,0,0-1.487-.308,3.348,3.348,0,0,0-1.487.308,2.664,2.664,0,0,0-.974.872,3.209,3.209,0,0,0-.513,1.282,7.465,7.465,0,0,0-.154,1.539,8.124,8.124,0,0,0,.154,1.641,3.21,3.21,0,0,0,.513,1.282,2.333,2.333,0,0,0,.923.821,3.2,3.2,0,0,0,1.487.308,3.349,3.349,0,0,0,1.487-.308,2.662,2.662,0,0,0,.974-.872,3.54,3.54,0,0,0,.513-1.282A7.1,7.1,0,0,0,1188.99,1617.877Z" transform="translate(-1141.246 -1612.8)" fill="#fff"/>
                <path id="Path_2391" data-name="Path 2391" d="M1211.761,1622.795c0,.051-.051.154-.1.154-.051.051-.1.1-.154.1a2.211,2.211,0,0,1-.256.052h-.82a2.22,2.22,0,0,1-.257-.052c-.051,0-.1-.051-.154-.1s-.051-.1-.1-.154l-2.1-7.641h0l-1.949,7.641c0,.051-.052.154-.1.154-.051.051-.1.1-.154.1a2.223,2.223,0,0,1-.257.052h-.82a2.225,2.225,0,0,1-.256-.052c-.051,0-.154-.051-.154-.1-.051-.052-.051-.1-.1-.154l-2.667-9.333a.559.559,0,0,1-.051-.256.189.189,0,0,1,.051-.154c.051-.051.1-.051.205-.051h.769a.308.308,0,0,1,.205.051.11.11,0,0,1,.1.1c0,.051.051.1.051.154l2.256,8.462h0l2.154-8.462c0-.051.051-.1.051-.154s.051-.051.1-.1c.051,0,.1-.051.205-.051h.718c.1,0,.154.051.2.051a.11.11,0,0,1,.1.1c0,.051.051.1.051.154l2.308,8.462h0l2.205-8.462c0-.051.051-.1.051-.154s.051-.051.1-.1c.051,0,.1-.051.2-.051h.718c.1,0,.154.051.205.051a.188.188,0,0,1,.051.154.558.558,0,0,1-.051.256Z" transform="translate(-1150.941 -1612.897)" fill="#fff"/>
              </g>
            </g>
            <g id="Group_2905" data-name="Group 2905" transform="translate(162.256 248.461)">
              <rect id="Rectangle_597" data-name="Rectangle 597" width="163.23" height="5.128" transform="translate(0 35.692)" fill="#daeef7"/>
              <rect id="Rectangle_598" data-name="Rectangle 598" width="163.23" height="5.128" transform="translate(0 47.59)" fill="#daeef7"/>
              <rect id="Rectangle_599" data-name="Rectangle 599" width="163.23" height="5.128" transform="translate(0 23.795)" fill="#daeef7"/>
              <rect id="Rectangle_600" data-name="Rectangle 600" width="163.23" height="5.128" transform="translate(0 11.897)" fill="#daeef7"/>
              <rect id="Rectangle_601" data-name="Rectangle 601" width="163.23" height="5.128" fill="#daeef7"/>
            </g>
          </g>
          <path id="Path_2392" data-name="Path 2392" d="M1683.545,1325.374a13.79,13.79,0,1,1-12.615-12.615A13.792,13.792,0,0,1,1683.545,1325.374Z" transform="translate(-1144.777 -1127.733)" fill="#daeef7" opacity="0.3"/>
          <g id="Group_2907" data-name="Group 2907" transform="translate(519.332 193.025)">
            <path id="Path_2393" data-name="Path 2393" d="M1681.646,1339.887h-8.205a1.62,1.62,0,0,1-1.641-1.641v-8.205a1.62,1.62,0,0,1,1.641-1.641h8.205a1.62,1.62,0,0,1,1.641,1.641v8.205A1.724,1.724,0,0,1,1681.646,1339.887Zm-8.256-11.077a1.161,1.161,0,0,0-1.179,1.18v8.205a1.16,1.16,0,0,0,1.179,1.179h8.205a1.16,1.16,0,0,0,1.18-1.179v-8.205a1.161,1.161,0,0,0-1.18-1.18Z" transform="translate(-1671.8 -1328.4)" fill="#daeef7"/>
          </g>
        </g>
        <path id="Path_2394" data-name="Path 2394" d="M715.6,705.608a25.088,25.088,0,0,1,24.461-19.436,23.769,23.769,0,0,1,6.359.821,36.991,36.991,0,0,1,44.41-19.692,45.543,45.543,0,0,1,81.795,8,31.214,31.214,0,0,1,46.41,27.282,29.132,29.132,0,0,1-.154,3.026Z" transform="translate(-478.498 -567.186)" fill="#daeef7" opacity="0.5"/>
        <g id="Group_2909" data-name="Group 2909" transform="translate(615.768 396.484)">
          <path id="Path_2398" data-name="Path 2398" d="M1544.092,1299.957c2.667,9.538,11.026,18.769,22.923,25.384a77.6,77.6,0,0,0,37.128,9.487c1.128,0,2.256,0,3.385-.051l3.949-.154,1.795.1c1.128.051,2.257.1,3.385.1a77.605,77.605,0,0,0,37.179-9.436c11.9-6.564,20.308-15.846,22.975-25.333,3.385-12.051-2.256-23.231-15.538-30.564-7.282-4-14.769-4.462-21.692-1.282-9.641,4.462-18,15.949-24.82,34.154-1.744,4.667-3.179,9.179-4.308,13.026-1.128-3.846-2.513-8.308-4.256-12.923-6.821-18.205-15.179-29.692-24.769-34.154-6.872-3.231-14.41-2.769-21.692,1.231C1546.4,1276.726,1540.707,1287.854,1544.092,1299.957Zm77.487,22.051c1.128-4.205,2.769-9.744,4.923-15.487,5.487-14.513,12-24.1,18.359-27.026a9.9,9.9,0,0,1,4.154-.974,12.606,12.606,0,0,1,6.2,1.846c8.1,4.461,11.333,9.9,9.539,16.154C1661.476,1308.213,1643.117,1320.419,1621.579,1322.008Zm-55.846-41.59a13.023,13.023,0,0,1,6.2-1.795,9.358,9.358,0,0,1,4.154.974c6.308,2.923,12.82,12.564,18.307,27.077,2.154,5.744,3.795,11.282,4.923,15.487-21.487-1.641-39.9-13.9-43.179-25.539C1554.4,1290.316,1557.63,1284.88,1565.733,1280.419Z" transform="translate(-1497.425 -1266.123)" fill="#fff"/>
          <path id="Path_2399" data-name="Path 2399" d="M1496.292,1565.684l160.974.154a15.692,15.692,0,0,0,15.692-15.692l.1-142a15.692,15.692,0,0,0-15.692-15.692L1496.4,1392.3a15.692,15.692,0,0,0-15.692,15.692l-.1,142A15.725,15.725,0,0,0,1496.292,1565.684Z" transform="translate(-1466.959 -1327.594)" fill="#feb546"/>
          <path id="Path_2400" data-name="Path 2400" d="M1480.7,1478.917l192.359.154.052-66.513a20.2,20.2,0,0,0-20.154-20.205L1500.9,1392.2a20.2,20.2,0,0,0-20.205,20.154Z" transform="translate(-1467.007 -1327.545)" fill="#f4a640"/>
          <path id="Path_2401" data-name="Path 2401" d="M1464.359,1456.969l199.077.154a10.33,10.33,0,0,0,10.359-10.359l.052-44.051a10.331,10.331,0,0,0-10.359-10.359l-199.077-.154a10.33,10.33,0,0,0-10.359,10.359L1454,1446.61A10.363,10.363,0,0,0,1464.359,1456.969Z" transform="translate(-1454 -1327.545)" fill="#feb546"/>
          <rect id="Rectangle_602" data-name="Rectangle 602" width="43.846" height="173.384" transform="translate(130.552 238.153) rotate(-179.95)" fill="#fff"/>
          <path id="Path_2509" data-name="Path 2509" d="M0,0H43.846V21.9H0Z" transform="translate(130.638 151.472) rotate(-179.95)" fill="#fff"/>
        </g>
        <g id="Group_2913" data-name="Group 2913" transform="translate(675.665 282.725)">
          <path id="Path_2402" data-name="Path 2402" d="M1621.533,1498.3l3.179,7.077a1.186,1.186,0,0,1-.564,1.538l-16.615,7.436a1.328,1.328,0,0,1-1.641-1.949l6.41-10C1612.3,1502.454,1617.379,1503.377,1621.533,1498.3Z" transform="translate(-1587.789 -1265.476)" fill="#07085b"/>
          <path id="Path_2403" data-name="Path 2403" d="M1663.433,1496.7l3.179,7.077a1.186,1.186,0,0,1-.564,1.539l-16.615,7.436a1.333,1.333,0,0,1-1.641-1.949l6.41-10C1654.253,1500.8,1659.33,1501.725,1663.433,1496.7Z" transform="translate(-1608.202 -1264.697)" fill="#07085b"/>
          <path id="Path_2404" data-name="Path 2404" d="M1693.454,1049.047s-18.1-3.026-24.154,17.128l7.487,11.231s15.692-6.051,15.743-6.615S1693.454,1049.047,1693.454,1049.047Z" transform="translate(-1618.787 -1046.53)"/>
          <path id="Path_2405" data-name="Path 2405" d="M1745.867,1067s5.282,7.949,7.949,11.077c6.769,7.9,7.641,5.436,11.846,12.256,4.564,7.333-.051,11.949-2.667,14.051s1.744,9.949-3.128,14.359c-6.359,5.744-12.256.308-16.615,3.538s-5.333,8-15.744,7.077-10.308-34.872-10.308-34.872,8.513-18,8.82-18.154C1726.431,1076.179,1745.867,1067,1745.867,1067Z" transform="translate(-1642.123 -1055.355)"/>
          <path id="Path_2406" data-name="Path 2406" d="M1655.559,1082.7s-.615,6.205-2.667,9.795c-5.179,9.026-8,6.051-10.872,13.538-3.077,8.051,2.256,11.744,5.231,13.333s.1,10.1,5.692,13.487c7.333,4.462,12.1-1.949,17.026.41s6.718,6.872,16.769,4.051,3.641-36.154,3.641-36.154-11.692-16.1-12.051-16.205C1677.969,1084.9,1655.559,1082.7,1655.559,1082.7Z" transform="translate(-1605.046 -1063.004)"/>
          <path id="Path_2407" data-name="Path 2407" d="M1720.373,1158.309s17.334-3.179,25.282-2.923-4.821,20.974-4.821,20.974l-13.026.308s-8-8.923-7.436-9.949c.513-1.026,0-7.846,0-7.846Z" transform="translate(-1643.655 -1098.408)" fill="#ffc0bb"/>
          <g id="Group_2911" data-name="Group 2911" transform="translate(57.295 10.161)">
            <path id="Path_2408" data-name="Path 2408" d="M1738.974,1128.8l4.564,13.9s-4,8.205-16.154,4.667c0,0,1.385-2.872-.462-8.769C1724.974,1132.543,1738.974,1128.8,1738.974,1128.8Z" transform="translate(-1704.065 -1095.624)" fill="#ffc0bb"/>
            <path id="Path_2409" data-name="Path 2409" d="M1738.974,1128.8l2.154,6.461c-1.282,4.718-5.436,7.949-13.231,8.974a18.7,18.7,0,0,0-.974-5.692C1724.974,1132.543,1738.974,1128.8,1738.974,1128.8Z" transform="translate(-1704.064 -1095.624)" fill="#fc8d84" opacity="0.6"/>
            <g id="Group_2910" data-name="Group 2910">
              <path id="Path_2410" data-name="Path 2410" d="M1689.538,1106.287c.974,2.257.307,4.718-1.487,5.539-1.795.769-4.051-.41-5.077-2.667-.974-2.256-.307-4.718,1.487-5.487S1688.564,1104.03,1689.538,1106.287Z" transform="translate(-1682.525 -1083.264)" fill="#f99893"/>
              <path id="Path_2411" data-name="Path 2411" d="M1692.507,1097.385a36.084,36.084,0,0,1-2.154-8.718,10.381,10.381,0,0,0-.307-1.744,19.546,19.546,0,0,1-.052-7.333,19.015,19.015,0,0,1,37.692,3.026,4.142,4.142,0,0,1,3.692-.41c2.308.923,3.18,4.051,2,6.872-1.179,2.872-4,4.41-6.308,3.436a4.868,4.868,0,0,1-.872-.513c-.718,9.333-8.154,16.718-17.282,16.821A17.24,17.24,0,0,1,1692.507,1097.385Z" transform="translate(-1686.008 -1064.106)" fill="#ffc0bb"/>
              <path id="Path_2412" data-name="Path 2412" d="M1716.887,1101.1a11.281,11.281,0,0,1,.615,3.231,9.331,9.331,0,0,1-.051,1.692,4.4,4.4,0,0,1-.564,1.692,2.892,2.892,0,0,0-.718,1.128,1.641,1.641,0,0,0,.359,1.128,4.422,4.422,0,0,0,2.667,1.333,3.75,3.75,0,0,1-3.231-.769,2.253,2.253,0,0,1-.769-1.795,2.655,2.655,0,0,1,.82-1.641,4.735,4.735,0,0,0,.462-1.282,13.982,13.982,0,0,0,.205-1.539C1716.785,1103.254,1716.836,1102.177,1716.887,1101.1Z" transform="translate(-1698.439 -1082.129)" fill="#f99893"/>
              <path id="Path_2413" data-name="Path 2413" d="M1730.775,1102.407a1.7,1.7,0,0,0,2,1.949,1.639,1.639,0,0,0,1.282-1.333,1.67,1.67,0,1,0-3.282-.615Z" transform="translate(-1706.019 -1082.103)" fill="#333"/>
              <path id="Path_2414" data-name="Path 2414" d="M1702.975,1104.507a1.7,1.7,0,0,0,2,1.949,1.639,1.639,0,0,0,1.282-1.333,1.67,1.67,0,1,0-3.282-.615Z" transform="translate(-1692.475 -1083.126)" fill="#333"/>
              <path id="Path_2415" data-name="Path 2415" d="M1722.823,1128.759a5.5,5.5,0,0,0-4.615.615s-2.41-1.538-4.308-.051a4.565,4.565,0,0,0,4.872,3.333A4.094,4.094,0,0,0,1722.823,1128.759Z" transform="translate(-1697.811 -1095.48)" fill="#f99893" opacity="0.3"/>
              <path id="Path_2416" data-name="Path 2416" d="M1723.364,1126.5a11.367,11.367,0,0,1-1.384.974,13.8,13.8,0,0,1-1.488.821,10.365,10.365,0,0,1-3.282.872,9.141,9.141,0,0,1-3.333-.359,12.356,12.356,0,0,1-3.077-1.538,7.152,7.152,0,0,0,1.385,1.077,9.09,9.09,0,0,0,1.59.769,7.488,7.488,0,0,0,3.487.513,8.933,8.933,0,0,0,3.385-1.026A9.914,9.914,0,0,0,1723.364,1126.5Z" transform="translate(-1696.3 -1094.503)" fill="#f99893"/>
              <path id="Path_2417" data-name="Path 2417" d="M1726.9,1095.177a23.372,23.372,0,0,1,2.462-.513,6.972,6.972,0,0,1,2.308.051,7.247,7.247,0,0,1,2.205.667c.564.205,1.846,1.026,2.205,1.18a4.7,4.7,0,0,0-1.693-2.051,5.772,5.772,0,0,0-2.513-1.077,5.383,5.383,0,0,0-2.718.256A4.851,4.851,0,0,0,1726.9,1095.177Z" transform="translate(-1704.144 -1078.359)" fill="#ff5b7e"/>
              <path id="Path_2418" data-name="Path 2418" d="M1704.123,1096.69a5.235,5.235,0,0,0-2.359-1.231,5.641,5.641,0,0,0-2.769.051,5.712,5.712,0,0,0-2.41,1.385,4.923,4.923,0,0,0-1.385,2.256c.308-.205,1.539-1.179,2.051-1.436a6.929,6.929,0,0,1,2.1-.923,8.369,8.369,0,0,1,2.308-.308A14.072,14.072,0,0,1,1704.123,1096.69Z" transform="translate(-1688.7 -1079.309)" fill="#ff5b7e"/>
            </g>
          </g>
          <path id="Path_2419" data-name="Path 2419" d="M1686.329,1320.966s5.128,24.051-18.1,29.743c-23.179,5.693-52.461,6.308-52.461,6.308l-.564,56.051L1603,1414.453s-36.41-75.487,6.462-90.359l39.231-2.308,16.1-2.154s16.1-5.077,16.308-4.308C1681.406,1316.042,1685.97,1321.376,1686.329,1320.966Z" transform="translate(-1579.457 -1176.296)" fill="#f4a640"/>
          <path id="Path_2420" data-name="Path 2420" d="M1728.429,1318.566s5.128,24.051-18.1,29.744c-23.179,5.692-52.462,6.308-52.462,6.308l-.564,56.051-12.205,1.385s-36.41-75.487,6.461-90.359l39.231-2.308,16.1-2.154s16.1-5.077,16.308-4.308C1723.455,1313.643,1728.07,1318.976,1728.429,1318.566Z" transform="translate(-1599.968 -1175.126)" fill="#feb546"/>
          <path id="Path_2421" data-name="Path 2421" d="M1668.148,1392.333c.667-.1,1.333-.256,2-.41s1.333-.308,1.949-.513c.307-.1.667-.205.974-.308a5.394,5.394,0,0,1-.974-.256,8.481,8.481,0,0,1-1.795-.923,7.461,7.461,0,0,1-1.487-1.333,11.591,11.591,0,0,1-1.18-1.59l.667.718c.256.205.462.462.718.667a7.861,7.861,0,0,0,1.539,1.128,10.794,10.794,0,0,0,1.743.821,5.9,5.9,0,0,0,1.846.359l1.077.051-.974.462a9.729,9.729,0,0,1-1.949.667,13.851,13.851,0,0,1-2,.41c-.667.1-1.333.205-2.051.256-.667.051-1.384.1-2.051.1C1666.815,1392.538,1667.482,1392.487,1668.148,1392.333Z" transform="translate(-1617.277 -1211.253)" fill="#fff"/>
          <path id="Path_2422" data-name="Path 2422" d="M1676.3,1224.172s-1.59,39.282-6,45.436l24.308-5.539V1221.3Z" transform="translate(-1619.274 -1130.527)" fill="#ffc0bb"/>
          <path id="Path_2423" data-name="Path 2423" d="M1702.2,1226.146s3.385,9.9,4,15.128c1.539,13.026-.154,22.256-2.82,29.692-3.8,10.41,27.128,6.615,27.795,6.308.615-.308,27.128-10.564,27.128-10.564l5.026-14.667v-25.9l-1.436-11.846Z" transform="translate(-1634.815 -1127.117)" fill="#02ccc0"/>
          <path id="Path_2424" data-name="Path 2424" d="M1780.08,1214.3l-19.487,6.615s3.385,31.128,2.308,35.538c-.923,3.795-15.026,11.282-23.949,15.487a8.93,8.93,0,0,1-4.615.821c-5.077-.411-14.1-1.231-15.538-1.282-2.205-.154-8.359,0-8.564.769-.205.718,4.769-.051,8,.615.462.1.205.718.1.718a44.231,44.231,0,0,0-7.538.718c-1.795.615,4.513.1,7.9.769.256.051.41.718.256.872-.41.41-1.9.769-5.949,1.18-6.769.667-.154,1.538-.154,1.538s.615-.154,6.41-.974c.205-.051.462.564.154.872a10.35,10.35,0,0,1-3.59,2c-2.154.667-.615,1.231-.615,1.231a39.7,39.7,0,0,1,6.41-1.385c1.744-.154,9.846.513,13.231.718l.256-.564c4.513-.154,40.667-1.077,44.1-23.436A164.545,164.545,0,0,0,1780.08,1214.3Z" transform="translate(-1638.594 -1127.117)" fill="#ffc0bb"/>
          <g id="Group_2912" data-name="Group 2912" transform="translate(0 109.491)">
            <path id="Path_2425" data-name="Path 2425" d="M1570.8,1257.8h62.051l17.59,42.923h29.9a1.543,1.543,0,0,1,1.538,1.539h0a1.543,1.543,0,0,1-1.538,1.538h-88.923Z" transform="translate(-1570.8 -1257.8)" fill="#07085b"/>
            <path id="Path_2426" data-name="Path 2426" d="M1630.714,1301.838a3.118,3.118,0,0,0,3.539,2.718,3.205,3.205,0,0,0,2.256-3.9,2.982,2.982,0,1,0-5.795,1.18Z" transform="translate(-1599.945 -1277.325)" fill="#daeef7"/>
          </g>
          <path id="Path_2427" data-name="Path 2427" d="M1694.383,1158.261s11.795,13.744,25.282-2.923c0,0,14.769-1.18,25.641,6.513,10.872,7.744,17.436,25.128,17.436,25.128s-19.744,9.949-24.615,10.41h-54.718a48.409,48.409,0,0,1-16.41-4.718C1666.948,1192.671,1668.383,1165.03,1694.383,1158.261Z" transform="translate(-1617.666 -1098.36)" fill="#02ccc0"/>
          <path id="Path_2428" data-name="Path 2428" d="M1790.239,1201.928c.513,1.692.974,3.436,1.436,5.128.872,3.384,1.641,6.615,2.2,10.051a18.226,18.226,0,0,0,3.333-.256c5.693-1.026,9.436-2.615,14.513-4.667,7.59-3.436,6.564-3.128,10.41-5.026a104.817,104.817,0,0,1-10.051,5.692,56.509,56.509,0,0,1-14.667,5.026,14.541,14.541,0,0,1-4.359.154c-.41-2.513-.821-5.128-2.051-10.82l-1.128-5.231-1.179-5.179C1789.213,1198.544,1789.726,1200.236,1790.239,1201.928Z" transform="translate(-1676.957 -1118.591)" fill="#07085b"/>
          <path id="Path_2429" data-name="Path 2429" d="M1702.556,1189.1c-.77,2-1.487,4.051-2.1,6.1a52.2,52.2,0,0,0-1.538,6.205,30.2,30.2,0,0,0-.513,6.308c.1,2.1,3.18,12.051,4.1,14-1.282-1.744-4.718-11.743-4.923-13.949a21.663,21.663,0,0,1,.307-6.564,33.479,33.479,0,0,1,1.795-6.256A38.573,38.573,0,0,1,1702.556,1189.1Z" transform="translate(-1632.504 -1114.84)" fill="#07085b"/>
          <path id="Path_2430" data-name="Path 2430" d="M1735.5,1073.014s-20.256-4.872-29.9-18.615c0,0-.154-12.513,18.41-9.692C1742.061,1047.424,1746.318,1065.014,1735.5,1073.014Z" transform="translate(-1636.472 -1044.292)"/>
        </g>
        <g id="Group_2915" data-name="Group 2915" transform="translate(303.174 62.009)">
          <path id="Path_2431" data-name="Path 2431" d="M1107.191,1069.2l-3.385,7.59a1.263,1.263,0,0,0,.615,1.641l17.744,7.948a1.4,1.4,0,0,0,1.744-2.051l-6.872-10.718S1111.652,1074.584,1107.191,1069.2Z" transform="translate(-970.751 -835.711)" fill="#07085b"/>
          <path id="Path_2432" data-name="Path 2432" d="M1063.191,1069.2l-3.385,7.59a1.263,1.263,0,0,0,.615,1.641l17.744,7.948a1.4,1.4,0,0,0,1.744-2.051l-6.872-10.718S1067.6,1074.584,1063.191,1069.2Z" transform="translate(-949.315 -835.711)" fill="#07085b"/>
          <path id="Path_2433" data-name="Path 2433" d="M986.1,655.792l-1.9,11.846-4-15.795s5.59-2.718,5.846-1.744A42.959,42.959,0,0,1,986.1,655.792Z" transform="translate(-910.58 -631.43)" fill="#07085b"/>
          <path id="Path_2434" data-name="Path 2434" d="M928.144,711.1,926.4,731.562l18.1-.82-2.1-18.154Z" transform="translate(-884.37 -661.252)" fill="#ffc0bb"/>
          <path id="Path_2435" data-name="Path 2435" d="M944.446,721.2l-.974-8.615L929.215,711.1l-.616,7.077C931.472,721,936.549,723.972,944.446,721.2Z" transform="translate(-885.442 -661.252)" fill="#f99893"/>
          <g id="Group_2914" data-name="Group 2914" transform="translate(28.596 12.127)">
            <path id="Path_2436" data-name="Path 2436" d="M980.582,681.533c-1.077,2.256-.513,4.769,1.282,5.641s4.154-.256,5.231-2.513.513-4.769-1.282-5.641S981.71,679.276,980.582,681.533Z" transform="translate(-939.097 -657.606)" fill="#f99893"/>
            <path id="Path_2437" data-name="Path 2437" d="M944.356,663.111c.1-.564.205-1.18.359-1.744a18.887,18.887,0,0,0,.308-7.436,19.31,19.31,0,0,0-38.359,1.692,4.109,4.109,0,0,0-3.744-.513c-2.359.872-3.385,3.949-2.256,6.923,1.077,2.923,3.9,4.615,6.256,3.744a4.151,4.151,0,0,0,.923-.513c.359,9.487,7.641,17.282,16.923,17.692a17.373,17.373,0,0,0,12.051-4.154C941.176,675.521,943.433,668.6,944.356,663.111Z" transform="translate(-900.204 -637.543)" fill="#ffc0bb"/>
            <path id="Path_2438" data-name="Path 2438" d="M956.267,675.3c.051,1.128.051,2.205.1,3.231a6.976,6.976,0,0,0,.615,2.872,2.716,2.716,0,0,1,.769,1.692,2.471,2.471,0,0,1-.82,1.795,3.779,3.779,0,0,1-3.333.667,4.669,4.669,0,0,0,2.718-1.282,1.622,1.622,0,0,0,.41-1.128c-.051-.41-.154-.513-.667-1.179a3.962,3.962,0,0,1-.513-1.744,9.318,9.318,0,0,1,0-1.692A10.164,10.164,0,0,1,956.267,675.3Z" transform="translate(-926.218 -655.938)" fill="#f99893"/>
            <path id="Path_2439" data-name="Path 2439" d="M943.119,676.145a1.686,1.686,0,1,1-1.282-1.385A1.713,1.713,0,0,1,943.119,676.145Z" transform="translate(-919.481 -655.655)" fill="#333"/>
            <path id="Path_2440" data-name="Path 2440" d="M971.219,679.345a1.686,1.686,0,1,1-1.282-1.385A1.713,1.713,0,0,1,971.219,679.345Z" transform="translate(-933.171 -657.214)" fill="#333"/>
            <path id="Path_2441" data-name="Path 2441" d="M940.8,700.4c.462.41.923.718,1.385,1.077a14.122,14.122,0,0,0,1.487.872,10.628,10.628,0,0,0,3.282,1.026,8.363,8.363,0,0,0,3.385-.256,12.633,12.633,0,0,0,3.179-1.436,8.558,8.558,0,0,1-3.077,1.744,8.114,8.114,0,0,1-3.538.359,9.77,9.77,0,0,1-3.385-1.128A10.461,10.461,0,0,1,940.8,700.4Z" transform="translate(-919.982 -668.166)" fill="#f99893"/>
            <path id="Path_2442" data-name="Path 2442" d="M941.533,668.864a24.677,24.677,0,0,0-2.462-.615,9.139,9.139,0,0,0-2.359-.051,7.038,7.038,0,0,0-2.256.615,23.062,23.062,0,0,0-2.257,1.128,5.651,5.651,0,0,1,1.744-2.051,5.843,5.843,0,0,1,2.615-1.026,5.685,5.685,0,0,1,2.769.359A5.108,5.108,0,0,1,941.533,668.864Z" transform="translate(-915.792 -651.81)" fill="#07085b"/>
            <path id="Path_2443" data-name="Path 2443" d="M964.9,671.246a4.741,4.741,0,0,1,2.461-1.128,6.292,6.292,0,0,1,2.769.154,5.625,5.625,0,0,1,2.359,1.487,5.428,5.428,0,0,1,1.333,2.359,25.089,25.089,0,0,0-2-1.538,8.854,8.854,0,0,0-2.1-1.026,8.366,8.366,0,0,0-2.308-.41A14.291,14.291,0,0,0,964.9,671.246Z" transform="translate(-931.723 -653.371)" fill="#07085b"/>
          </g>
          <path id="Path_2444" data-name="Path 2444" d="M949.007,892.308s-3.744,25.538,20.923,30c24.718,4.462,55.436,3.128,55.436,3.128l4.256,58.718,12.872.667s33.179-81.59-12.769-94.359l-41.282.205-17.026-1.231S954.187,885.18,953.981,886C953.879,886.872,949.417,892.718,949.007,892.308Z" transform="translate(-895.285 -746.408)" fill="#06bfad"/>
          <path id="Path_2445" data-name="Path 2445" d="M904.707,892.608s-3.744,25.538,20.923,30c24.718,4.462,55.436,3.128,55.436,3.128l4.256,58.718,12.872.667s33.179-81.59-12.769-94.359l-41.282.205-17.026-1.231s-17.231-4.256-17.436-3.436C909.579,887.121,905.117,893.018,904.707,892.608Z" transform="translate(-873.703 -746.555)" fill="#02ccc0"/>
          <path id="Path_2446" data-name="Path 2446" d="M906.574,733.589s17.026,2.154,21.333,5.692c4.308,3.487,25.128,55.077,25.128,55.077l-17.282,20.256-36.718.257s-27.538,14.82-44.82.82c-17.282-14.051-8.359-62.872,1.641-73.436,10-10.513,27.795-10.256,27.795-10.256S899.8,743.333,906.574,733.589Z" transform="translate(-844.442 -671.433)" fill="#348888"/>
          <path id="Path_2447" data-name="Path 2447" d="M899.841,785.1a68.069,68.069,0,0,1,1.231,8.513c.154,1.436.205,2.872.308,4.308.051,1.436.051,2.872.051,4.308a54.243,54.243,0,0,1-.718,8.615A27.489,27.489,0,0,1,898.2,819.1a42.3,42.3,0,0,0,1.641-8.359c.308-2.82.41-5.692.462-8.513s0-5.692-.1-8.564C900.1,790.844,899.995,787.972,899.841,785.1Z" transform="translate(-870.632 -697.303)" fill="#fff"/>
          <path id="Path_2448" data-name="Path 2448" d="M1000.6,781.4c.769,4.205,1.59,8.359,2.462,12.513s1.744,8.308,2.718,12.41,2.1,8.205,3.436,12.205a58.545,58.545,0,0,0,2.308,5.9,22.585,22.585,0,0,0,3.282,5.436,19.977,19.977,0,0,1-3.744-5.18,42.42,42.42,0,0,1-2.615-5.846c-.769-2-1.436-4.051-2.051-6.051-.616-2.051-1.128-4.1-1.641-6.154s-.974-4.154-1.385-6.256-.82-4.2-1.128-6.308C1001.472,789.862,1000.959,785.656,1000.6,781.4Z" transform="translate(-920.519 -695.5)" fill="#fff"/>
          <path id="Path_2449" data-name="Path 2449" d="M991.431,867.815c-.1-.872-6.615-1.795-8.974-1.949-1.795-.1-13.795-.513-17.846-.667l.308,1.026-.051,4.615-.667,3.077c3.59.205,12.308.564,14.154.923a44.03,44.03,0,0,1,6.667,2.308s1.744-.41-.462-1.385a10.735,10.735,0,0,1-3.59-2.564c-.308-.359.051-.974.257-.872,6.051,1.59,6.667,1.846,6.667,1.846s7.128-.051.051-1.641c-4.256-.974-5.795-1.538-6.154-2a.793.793,0,0,1,.41-.923c3.692-.205,10.308,1.077,8.461.205-1.487-.718-6.1-1.487-7.949-1.744-.1,0-.308-.667.205-.718C986.354,867.1,991.533,868.585,991.431,867.815Z" transform="translate(-902.786 -736.326)" fill="#ffc0bb"/>
          <path id="Path_2450" data-name="Path 2450" d="M893.3,850.1c1.487.359,2.974.769,4.462,1.077,1.487.359,2.974.615,4.513.923,3.026.564,6.051,1.026,9.077,1.436s6.051.769,9.128,1.077c3.026.308,6.1.564,9.128.718h.41l.1.359c.256,1.026.41,2,.564,3.026a23.181,23.181,0,0,1-.1,6.154,15.192,15.192,0,0,1-.872,2.974l-.051.1-.051.051-3.333,2.256c-1.128.769-2.205,1.487-3.333,2.205,1.026-.82,2.1-1.641,3.179-2.462l3.179-2.461-.1.1a13.388,13.388,0,0,0,.718-2.82,27.912,27.912,0,0,0,.154-2.923c-.051-.974-.154-1.949-.256-2.923a25.92,25.92,0,0,0-.615-2.872l.513.359c-1.59-.051-3.077-.154-4.615-.256s-3.077-.256-4.615-.41c-3.077-.308-6.1-.718-9.128-1.18-3.026-.513-6.051-1.077-9.026-1.795q-2.231-.539-4.462-1.231C896.172,851.126,894.736,850.613,893.3,850.1Z" transform="translate(-868.244 -728.97)" fill="#fff"/>
          <path id="Path_2451" data-name="Path 2451" d="M1054.072,803.3h-66.41l-18.821,45.949h-32a1.652,1.652,0,0,0-1.641,1.641h0a1.652,1.652,0,0,0,1.641,1.641h95.179Z" transform="translate(-888.657 -706.169)" fill="#07085b"/>
          <path id="Path_2452" data-name="Path 2452" d="M1096.84,850.4a3.411,3.411,0,0,1-3.795,2.923,3.465,3.465,0,0,1-2.41-4.154,3.19,3.19,0,1,1,6.205,1.231Z" transform="translate(-964.348 -727.063)" fill="#daeef7"/>
          <path id="Path_2453" data-name="Path 2453" d="M949.555,627.026s5.692.205-.256-4.615c-5.949-4.769-21.9-10.41-32.154-5.026,0,0-2.051-4.359-5.026-3.333s1.949,4.051,1.949,4.051-3.795-.1-4.923,1.744c-.872,1.385,1.487,1.436,2.718,1.385-2.154.359-10.41,5.59-6.256,22.205,1.487-.308,9.846-12.462,9.846-12.462s19.18,10.667,17.282,2.205c0,0,19.846,12.41,17.026,2.154C949.76,635.333,957.452,635.9,949.555,627.026Z" transform="translate(-873.679 -613.895)" fill="#07085b"/>
          <path id="Path_2454" data-name="Path 2454" d="M906.6,652.616a3.556,3.556,0,0,1,3.282.82c1.692,1.333,1.539,6.1,1.539,6.1s8.154,5.231,7.282-16.974c-.923-23.641-6.82,1.9-6.82,1.9Z" transform="translate(-874.724 -622.973)" fill="#07085b"/>
        </g>
      </g>
      <g id="Group_2917" data-name="Group 2917" transform="translate(162.786 346.421)">
        <path id="Path_2455" data-name="Path 2455" d="M661.592,1605.423l-3.692,54.051,3.59,8.1,8.154-4.872L680,1604.5Z" transform="translate(-613.174 -1380.911)" fill="#ffc0bb"/>
        <path id="Path_2456" data-name="Path 2456" d="M694.041,1434.513,650.4,1430v128.41a6.027,6.027,0,0,0,4.051,5.692,23.051,23.051,0,0,0,14.82.154,6.1,6.1,0,0,0,4.1-4.769Z" transform="translate(-609.52 -1295.897)" fill="#55769f"/>
        <path id="Path_2457" data-name="Path 2457" d="M657.971,1711.7v9.487a1.433,1.433,0,0,1-1.436,1.436H634.279a1.622,1.622,0,0,1-.872-2.974l12.205-7.949S650.792,1715.29,657.971,1711.7Z" transform="translate(-600.886 -1433.136)" fill="#07085b"/>
        <path id="Path_2458" data-name="Path 2458" d="M761.759,1605.423l3.744,54.051-3.59,8.1-8.205-4.872L743.4,1604.5Z" transform="translate(-654.828 -1380.911)" fill="#ffc0bb"/>
        <path id="Path_2459" data-name="Path 2459" d="M680.6,1434.513,724.241,1430l12.718,125.026a6.027,6.027,0,0,1-4.051,5.692,23.048,23.048,0,0,1-14.82.154,6.1,6.1,0,0,1-4.1-4.769Z" transform="translate(-624.233 -1295.897)" fill="#55769f"/>
        <path id="Path_2460" data-name="Path 2460" d="M762.4,1711.7v9.487a1.433,1.433,0,0,0,1.436,1.436h22.256a1.622,1.622,0,0,0,.872-2.974l-12.205-7.949S769.528,1715.29,762.4,1711.7Z" transform="translate(-664.085 -1433.136)" fill="#07085b"/>
        <path id="Path_2461" data-name="Path 2461" d="M652.645,1268.215s-2.205-10.615,20.513-10.615c22.667,0,18.615,11.744,18.615,11.744l-19.436,5.539Z" transform="translate(-610.585 -1211.908)" fill="#348888"/>
        <path id="Path_2462" data-name="Path 2462" d="M649.28,1471.961s15.641-5.282,13.538-19.385c-2.154-14.154.308-3.333-.667-3.333s-9.538-.821-9.538-.821l-4.513,2.461,2.667,9.128-1.744,4.513Z" transform="translate(-608.4 -1303.345)" fill="#446284"/>
        <path id="Path_2463" data-name="Path 2463" d="M829,1237.832a41.555,41.555,0,0,0,3.59-5.436c.359-1.077,3.077-10.1,4.359-10.923,1.333-.821,2.051.718,2.051.718s1.692-3.385,3.333-.923c0,0,1.846-2,2.769-1.385s-.205,3.641-.205,3.641-.154.872.769-.256c1.282-1.59,5.436-8.974,6.718-8.308,2,1.077-5.744,12.974-5.744,12.974s3.077-2.923,4.564-1.385a.414.414,0,0,1-.1.667,9.232,9.232,0,0,0-2.872,2.615c-1.026,1.59-.872,3.9-7.179,6.256l-2.923,4.615c0,.051-7.231.615-9.128-2.872Z" transform="translate(-696.531 -1191.114)" fill="#ffc0bb"/>
        <rect id="Rectangle_604" data-name="Rectangle 604" width="77.661" height="48.123" transform="translate(67.692 39.343)" fill="none"/>
        <path id="Path_2464" data-name="Path 2464" d="M649.76,1275.05h37.077c.769,0,1.487-.052,2.256-.052,1.385-.051,5.641.923,8.154,13.641,3.077,15.385,13.9,68.051,7.692,72.667-6.154,4.615-50.872,13.231-57.077,4.923C641.708,1357.87,637.093,1283.357,649.76,1275.05Z" transform="translate(-605.29 -1220.383)" fill="#348888"/>
        <path id="Path_2465" data-name="Path 2465" d="M696.759,1265.205c.051-.051.051-.1.1-.1l-.308-10.1-11.231,2.462-.923,7.846S691.733,1272.282,696.759,1265.205Z" transform="translate(-626.084 -1210.641)" fill="#ffc0bb"/>
        <path id="Path_2466" data-name="Path 2466" d="M697.2,1262.077l-.205-7.077-11.385,3.692-.308,2.667A19.313,19.313,0,0,0,697.2,1262.077Z" transform="translate(-626.523 -1210.641)" fill="#fc8d84" opacity="0.6"/>
        <path id="Path_2467" data-name="Path 2467" d="M722.9,1223.461c-.615,2.051.154,4.1,1.795,4.615s3.487-.718,4.1-2.769-.154-4.1-1.795-4.616C725.412,1220.179,723.566,1221.461,722.9,1223.461Z" transform="translate(-644.738 -1193.871)" fill="#f99893"/>
        <path id="Path_2468" data-name="Path 2468" d="M690.818,1217.433a32.176,32.176,0,0,0,1.026-7.744c0-.513.051-1.025.1-1.538a16.066,16.066,0,0,0-.667-6.359,16.576,16.576,0,0,0-32.359,6.256,3.753,3.753,0,0,0-3.231,0c-1.9,1.026-2.359,3.795-1.077,6.154s3.9,3.436,5.744,2.359a3.637,3.637,0,0,0,.718-.513c1.487,8,8.667,13.692,16.564,12.872A15.113,15.113,0,0,0,690.818,1217.433Z" transform="translate(-611.221 -1179.023)" fill="#ffc0bb"/>
        <path id="Path_2469" data-name="Path 2469" d="M690.007,1224.019a1.444,1.444,0,0,1-1.538,1.846,1.426,1.426,0,0,1-1.231-1.025,1.445,1.445,0,0,1,1.539-1.846A1.426,1.426,0,0,1,690.007,1224.019Z" transform="translate(-627.435 -1195.044)" fill="#333"/>
        <path id="Path_2470" data-name="Path 2470" d="M714.307,1223.119a1.444,1.444,0,0,1-1.538,1.846,1.426,1.426,0,0,1-1.231-1.026,1.445,1.445,0,0,1,1.538-1.846A1.5,1.5,0,0,1,714.307,1223.119Z" transform="translate(-639.274 -1194.606)" fill="#333"/>
        <path id="Path_2471" data-name="Path 2471" d="M694.2,1244.61a12.409,12.409,0,0,0,2.205,1.077,6.406,6.406,0,0,0,2.41.359,6.3,6.3,0,0,0,2.359-.513,10.828,10.828,0,0,0,2.051-1.333,6.4,6.4,0,0,1-1.949,1.538,4.7,4.7,0,0,1-1.179.462,5.065,5.065,0,0,1-1.231.154,6.567,6.567,0,0,1-2.462-.462A6.74,6.74,0,0,1,694.2,1244.61Z" transform="translate(-630.859 -1205.379)" fill="#f99893"/>
        <path id="Path_2472" data-name="Path 2472" d="M688.149,1218.14a17.377,17.377,0,0,0-2.1-.462,6.538,6.538,0,0,0-2,0,7,7,0,0,0-1.949.564,13.751,13.751,0,0,0-1.9,1.077,4.912,4.912,0,0,1,1.487-1.744,4.72,4.72,0,0,1,2.205-.923,5.168,5.168,0,0,1,2.359.205A5.911,5.911,0,0,1,688.149,1218.14Z" transform="translate(-624.038 -1191.935)" fill="#07085b"/>
        <path id="Path_2473" data-name="Path 2473" d="M707,1217.288a4.474,4.474,0,0,1,1.795-1.436,4.642,4.642,0,0,1,2.359-.462,4.354,4.354,0,0,1,2.256.718,4.868,4.868,0,0,1,1.641,1.59c-.513-.205-1.128-.564-2-.872a6.953,6.953,0,0,0-2-.41,6.638,6.638,0,0,0-2,.2A8.681,8.681,0,0,0,707,1217.288Z" transform="translate(-637.095 -1191.34)" fill="#07085b"/>
        <path id="Path_2474" data-name="Path 2474" d="M702.623,1221.2a12.688,12.688,0,0,0-.205,3.128,9.285,9.285,0,0,0,.256,1.59,3.954,3.954,0,0,0,.769,1.539,3.141,3.141,0,0,1,.82.974,1.541,1.541,0,0,1-.205,1.128,4.41,4.41,0,0,1-2.359,1.59,3.552,3.552,0,0,0,2.974-1.128,2.414,2.414,0,0,0,.513-1.795,2.594,2.594,0,0,0-.974-1.436,3.658,3.658,0,0,1-.615-1.179c-.154-.462-.256-.923-.41-1.436C702.982,1223.2,702.777,1222.225,702.623,1221.2Z" transform="translate(-634.513 -1194.174)" fill="#f99893"/>
        <path id="Path_2475" data-name="Path 2475" d="M661.874,1467.854c.872-.205,1.59-.359,2.205-.564a15.947,15.947,0,0,0,.308-2.257c-2.461-.461-6.154-.974-8.872-1.333l-4,6.974-.615,1.59c.667.769,1.128,1.436,1.128,1.436,1.795,1.744,3.231,3.128,4.359,4.205a18.878,18.878,0,0,0,6.872-7.949c-.615-.564-1.128-1.077-1.538-1.436C661.413,1468.367,661.567,1467.956,661.874,1467.854Z" transform="translate(-609.764 -1312.316)" fill="#ffc0bb"/>
        <rect id="Rectangle_605" data-name="Rectangle 605" width="51.077" height="106.831" transform="translate(0 54.604)" fill="none"/>
        <path id="Path_2476" data-name="Path 2476" d="M694.19,1189.013l1.641,10a28.066,28.066,0,0,0,1.026-12.205c-.051-.256-.051-.462-.1-.718-.308-2.513-4.667-4.923-4.667-4.923,2.923-2.564,2.308-7.846,2.308-7.846a7.27,7.27,0,0,1-4.462,4.462c2.564-5.949,1.128-9.282,1.128-9.282-.359,3.692-6.718,4.974-6.718,4.974.615-2.718,1.128-4.974,1.128-4.974-1.128,1.744-5.333,5.744-12.205,6.1-6.872.308-7.641,7.231-7.641,7.231-4.769,3.641-3.436,12.462-2.051,17.9l1.385-8.41c.051-.41.1-.769.154-1.128.051-.256.1-.462.154-.718h0c1.128-4.205,5.795-5.18,5.795-5.18,8.667,4.667,17.692-.154,17.692-.154C693.215,1185.833,694.19,1189.013,694.19,1189.013Z" transform="translate(-615.31 -1168.5)" fill="#07085b"/>
        <path id="Path_2477" data-name="Path 2477" d="M678.274,1297.872a1.887,1.887,0,0,0-.256-.564c1.026-7.9-3.128-20.051-3.9-22.308H673.3c.359,1.026,4.923,13.949,3.949,22.051a.929.929,0,1,0,1.026.82Z" transform="translate(-620.677 -1220.385)" fill="#daeef7"/>
        <path id="Path_2478" data-name="Path 2478" d="M732.161,1296.436a1.9,1.9,0,0,0-.256-.564c.872-6.821-2.1-16.821-3.385-20.872h-.82c1.231,3.795,4.256,13.846,3.487,20.615a.929.929,0,0,0,.205,1.846A.857.857,0,0,0,732.161,1296.436Z" transform="translate(-647.179 -1220.385)" fill="#daeef7"/>
      </g>
      <g id="Group_2922" data-name="Group 2922" transform="translate(253.572 469.49)">
        <path id="Path_2479" data-name="Path 2479" d="M959.067,1687.072,946.4,1647.892l16.1-3.693-.82,5.077,5.538,34.308-5.641,5.18Z" transform="translate(-844.511 -1523.32)" fill="#ffc0bb"/>
        <path id="Path_2480" data-name="Path 2480" d="M885.9,1639.185l5.077,43.179,6.1,3.282,2.923-5.282,3.692-42.564Z" transform="translate(-815.037 -1520.203)" fill="#ffc0bb"/>
        <path id="Path_2481" data-name="Path 2481" d="M882.39,1631.354a45.988,45.988,0,0,0,20.1.923l1.333-12.1,6-2.615,4.513,14.41c3.641.462,10.462.564,19.641-2.974l-4.154-23.795H881.98c-.051,4,0,7.9.051,11.59C882.185,1621.713,882.287,1626.636,882.39,1631.354Z" transform="translate(-813.116 -1504.32)" fill="#feb546"/>
        <path id="Path_2482" data-name="Path 2482" d="M892.6,1697.4l1.641,13.949,6.154,3.282,2.923-5.282.974-11.59A62.816,62.816,0,0,1,892.6,1697.4Z" transform="translate(-818.301 -1549.238)" fill="#02ccc0"/>
        <path id="Path_2483" data-name="Path 2483" d="M894.936,1720.8v7.333a1.083,1.083,0,0,1-1.077,1.077H876.731a1.259,1.259,0,0,1-.667-2.308l9.641-6.1C885.654,1720.8,889.448,1723.569,894.936,1720.8Z" transform="translate(-809.97 -1560.639)" fill="#07085b"/>
        <path id="Path_2484" data-name="Path 2484" d="M972.223,1694a17.421,17.421,0,0,1-10.923,1.795h0l5.026,15.539,2.513,1.744,5.641-5.179-2.256-13.9Z" transform="translate(-851.77 -1547.582)" fill="#02ccc0"/>
        <path id="Path_2485" data-name="Path 2485" d="M968.8,1720.8v7.333a1.083,1.083,0,0,0,1.077,1.077H987a1.258,1.258,0,0,0,.667-2.308l-9.641-6.1C978.082,1720.8,974.338,1723.569,968.8,1720.8Z" transform="translate(-855.424 -1560.639)" fill="#07085b"/>
        <rect id="Rectangle_606" data-name="Rectangle 606" width="10.154" height="10.154" transform="translate(87.581 42.008)" fill="#ffc0bb"/>
        <path id="Path_2486" data-name="Path 2486" d="M928.654,1496.5v-6.1H918.5v5.179C920.654,1496.759,923.936,1497.426,928.654,1496.5Z" transform="translate(-830.919 -1448.392)" fill="#f99893"/>
        <path id="Path_2487" data-name="Path 2487" d="M926.775,1441.512a3.6,3.6,0,0,0-3.231.1,17.026,17.026,0,0,0-34.051,0,3.589,3.589,0,0,0-3.231-.1c-1.9.923-2.513,3.641-1.333,6.052s3.692,3.538,5.59,2.615a3.636,3.636,0,0,0,.718-.513,15.337,15.337,0,0,0,30.462,0,3.631,3.631,0,0,0,.718.513c1.9.923,4.41-.205,5.59-2.615C929.288,1445.153,928.673,1442.486,926.775,1441.512Z" transform="translate(-814.271 -1416.324)" fill="#ffc0bb"/>
        <path id="Path_2488" data-name="Path 2488" d="M905.6,1505.4s12,11.026,22.923.154Z" transform="translate(-824.634 -1455.7)" fill="#ffc0bb"/>
        <path id="Path_2489" data-name="Path 2489" d="M998.879,1453.166c-.051-.359,3.744-3.693,3.333-3.8s-4.308,2.513-4.461,2.256c-.1-.256,3.59-3.436,3.128-3.9s-4.41,3.128-4.615,2.615,3.949-4.1,3.436-4.462c-.41-.308-5.128,3.59-6.615,4.821a.308.308,0,0,1-.513-.205c-.462-3.846-.718-4.1-1.128-3.949-.256.1-1.487,4.462-2.308,7.641-14.359,15.18-38.923,25.744-38.923,25.744s-8.821,21.538,3.59,16.974c10.923-4,33.333-29.538,38.718-35.744h0l2.154-2.051h0c.718-.462,1.333-.82,1.333-.82,6.718-5.385,6.564-5.539,6.41-5.846C1002.315,1452.089,998.93,1453.525,998.879,1453.166Z" transform="translate(-844.888 -1426.696)" fill="#ffc0bb"/>
        <path id="Path_2490" data-name="Path 2490" d="M801.495,1453.166c.051-.359-3.743-3.693-3.333-3.8s4.308,2.513,4.461,2.256c.1-.256-3.59-3.436-3.128-3.9s4.41,3.128,4.615,2.615-3.949-4.1-3.436-4.462c.41-.308,5.128,3.59,6.615,4.821a.308.308,0,0,0,.513-.205c.461-3.846.718-4.1,1.128-3.949.256.1,1.487,4.462,2.308,7.641,14.359,15.18,38.923,25.744,38.923,25.744s8.82,21.538-3.59,16.974c-10.923-4-33.333-29.538-38.718-35.744h0l-2.154-2.051h0c-.718-.462-1.333-.82-1.333-.82-6.718-5.385-6.564-5.539-6.41-5.846S801.443,1453.525,801.495,1453.166Z" transform="translate(-772.17 -1426.696)" fill="#ffc0bb"/>
        <path id="Path_2491" data-name="Path 2491" d="M923.907,1491.4l-12.769,5.282a29.064,29.064,0,0,1-8.051,2.051h0c-9.9,9.846-20.769-.1-20.769-.1h0a28.021,28.021,0,0,1-8.872-2.1l-12.256-5.077a43.5,43.5,0,0,1-5.59,16.256l14.718,9.128-1.231,33.333s39.18,2.615,47.846-.359l-1.9-33.128,14.462-8.975C923.856,1501.144,923.907,1491.4,923.907,1491.4Z" transform="translate(-800.275 -1448.879)" fill="#108282"/>
        <path id="Path_2492" data-name="Path 2492" d="M889.9,1538.9s18.923.769,30.615,0c0,0,.872,21.231,3.231,29.795a5.337,5.337,0,0,0,4.359,3.9l1.743.308s-4.82,4.205-4.974,4.205-13.9-.154-14.1-.257S882,1572.9,882,1572.9a6.443,6.443,0,0,0,4.923-2.256C888.923,1568.284,889.9,1538.9,889.9,1538.9Z" transform="translate(-813.137 -1472.02)" fill="#feb546"/>
        <path id="Path_2493" data-name="Path 2493" d="M903.033,1526.236h-2.615a.7.7,0,0,1-.718-.718v-22a.7.7,0,0,1,.718-.718h2.615a.7.7,0,0,1,.718.718v22A.733.733,0,0,1,903.033,1526.236Z" transform="translate(-821.76 -1454.433)" fill="#f4a640"/>
        <path id="Path_2494" data-name="Path 2494" d="M950.533,1526.236h-2.615a.7.7,0,0,1-.718-.718v-22a.7.7,0,0,1,.718-.718h2.615a.7.7,0,0,1,.718.718v22A.7.7,0,0,1,950.533,1526.236Z" transform="translate(-844.901 -1454.433)" fill="#f4a640"/>
        <path id="Path_2495" data-name="Path 2495" d="M887.89,1534.764c-.1.205-.154.41-.256.615a3.954,3.954,0,0,1-.718,1.077,4.879,4.879,0,0,1-.974.821,2.439,2.439,0,0,1-1.18.359l-.462.051.359.256a2.652,2.652,0,0,0,.667.308,3.035,3.035,0,0,0,.718.1,2.953,2.953,0,0,0,1.333-.256,3.01,3.01,0,0,1-.667.1,2.926,2.926,0,0,1-.667-.051l-.615-.154c-.051,0-.1-.051-.154-.051a2.969,2.969,0,0,0,.872-.308,3.685,3.685,0,0,0,1.077-.923l.205-.256.154-.308a3.133,3.133,0,0,0,.256-.615,4.747,4.747,0,0,1,.205-.667c.051-.205.051-.462.1-.667A6.041,6.041,0,0,0,887.89,1534.764Z" transform="translate(-814.257 -1469.73)" fill="#daeef7"/>
        <path id="Path_2496" data-name="Path 2496" d="M964.256,1534.464c.1.2.154.41.256.615a3.95,3.95,0,0,0,.718,1.077,4.87,4.87,0,0,0,.974.821,2.439,2.439,0,0,0,1.179.359l.462.051-.359.257a2.655,2.655,0,0,1-.667.308,3.027,3.027,0,0,1-.718.1,2.949,2.949,0,0,1-1.333-.256,3.009,3.009,0,0,0,.667.1,2.918,2.918,0,0,0,.667-.051l.615-.154c.051,0,.1-.051.154-.051a2.966,2.966,0,0,1-.872-.308,3.683,3.683,0,0,1-1.077-.923l-.205-.256-.154-.308a3.129,3.129,0,0,1-.257-.615,4.8,4.8,0,0,0-.205-.667c-.051-.2-.051-.462-.1-.667A1.139,1.139,0,0,1,964.256,1534.464Z" transform="translate(-853.086 -1469.584)" fill="#daeef7"/>
        <path id="Path_2497" data-name="Path 2497" d="M923.3,1568.846h-9.436a4.684,4.684,0,0,1-4.667-4.666V1559h18.769v5.18A4.65,4.65,0,0,1,923.3,1568.846Z" transform="translate(-826.388 -1481.813)" fill="#f4a640"/>
        <path id="Path_2498" data-name="Path 2498" d="M903.659,1543.179a1.193,1.193,0,0,1-1.179,1.179,1.18,1.18,0,1,1,1.179-1.179Z" transform="translate(-822.539 -1473.53)" fill="#daeef7"/>
        <path id="Path_2499" data-name="Path 2499" d="M951.159,1543.179a1.193,1.193,0,0,1-1.179,1.179,1.18,1.18,0,1,1,1.179-1.179Z" transform="translate(-845.68 -1473.53)" fill="#daeef7"/>
        <path id="Path_2500" data-name="Path 2500" d="M935.955,1464.409a1.357,1.357,0,0,0,1.538,1.692,1.252,1.252,0,0,0,1.128-1.026,1.357,1.357,0,0,0-1.538-1.692A1.438,1.438,0,0,0,935.955,1464.409Z" transform="translate(-839.399 -1435.221)" fill="#333"/>
        <path id="Path_2501" data-name="Path 2501" d="M912.955,1464.609a1.357,1.357,0,0,0,1.539,1.692,1.253,1.253,0,0,0,1.128-1.026,1.357,1.357,0,0,0-1.538-1.692A1.524,1.524,0,0,0,912.955,1464.609Z" transform="translate(-828.194 -1435.319)" fill="#333"/>
        <path id="Path_2502" data-name="Path 2502" d="M933,1458.811a14.6,14.6,0,0,1,2-.564,7.992,7.992,0,0,1,1.9-.1,6.086,6.086,0,0,1,1.846.461,15.1,15.1,0,0,1,1.846.923,4.429,4.429,0,0,0-1.487-1.59,4.562,4.562,0,0,0-2.1-.769,4.84,4.84,0,0,0-2.256.308A5.64,5.64,0,0,0,933,1458.811Z" transform="translate(-837.983 -1432.187)" fill="#07085b"/>
        <path id="Path_2503" data-name="Path 2503" d="M914.941,1458.829a4.294,4.294,0,0,0-1.744-1.282,4.764,4.764,0,0,0-2.256-.359,4.546,4.546,0,0,0-2.154.769,4.884,4.884,0,0,0-1.487,1.59,20.314,20.314,0,0,1,1.846-.923,6.1,6.1,0,0,1,1.846-.461,5.909,5.909,0,0,1,1.9.1A13.406,13.406,0,0,1,914.941,1458.829Z" transform="translate(-825.462 -1432.206)" fill="#07085b"/>
        <path id="Path_2504" data-name="Path 2504" d="M897.19,1413.057s4.821-4.051,15.692-3.385c10.923.667,12.974,6.359,13.59,14.461l-.615,9.692s-2.82-2.923-6.513-10.974c0,0-6.1,6.872-8.769,6.051s1.026-5.743,1.026-5.743-12.461,10.718-19.795,10.718c0,0-3.9-12.513,1.59-17.128,0,0-4.1.2-4.308-.615s1.949-2,5.9-1.539c0,0-2.821-5.487-1.231-6.051C895.292,1407.877,897.19,1413.057,897.19,1413.057Z" transform="translate(-816.583 -1408.485)" fill="#07085b"/>
        <path id="Path_2505" data-name="Path 2505" d="M916.2,1480.2c.41,1.795,2.461,3.231,5.026,3.282,2.513.1,4.667-1.231,5.18-2.974Z" transform="translate(-829.798 -1443.423)" fill="#fff"/>
        <path id="Path_2506" data-name="Path 2506" d="M924.4,1462.3a10.111,10.111,0,0,1-.1,2.154,4.252,4.252,0,0,1-.308,1.077,3.039,3.039,0,0,1-.615,1.026c-.359.256-.513.359-.615.615a1.019,1.019,0,0,0,.051.769,2.861,2.861,0,0,0,1.487,1.282,2.41,2.41,0,0,1-1.949-1.026,1.5,1.5,0,0,1-.205-1.231,1.927,1.927,0,0,1,.769-.923,2.875,2.875,0,0,0,.513-.769,6.86,6.86,0,0,0,.359-.923C923.987,1463.633,924.192,1462.966,924.4,1462.3Z" transform="translate(-832.662 -1434.702)" fill="#f99893"/>
        <g id="Group_2919" data-name="Group 2919" transform="translate(138.897 19.833)">
          <rect id="Rectangle_607" data-name="Rectangle 607" width="34.615" height="41.949" transform="matrix(-0.939, 0.345, -0.345, -0.939, 46.952, 45.233)" fill="#feb546"/>
          <rect id="Rectangle_608" data-name="Rectangle 608" width="17.282" height="41.949" transform="matrix(-0.939, 0.345, -0.345, -0.939, 46.947, 45.229)" fill="#f4a640"/>
          <g id="Group_2918" data-name="Group 2918" transform="translate(5.693)">
            <path id="Path_2507" data-name="Path 2507" d="M1051.684,1458.615h0a.638.638,0,0,0,.308-.923,28.035,28.035,0,0,0-3.9-5.846c-3.641-4.1-7.795-5.538-11.949-4.205a8.345,8.345,0,0,0-5.128,4.256c-2.461,4.769-.923,11.487-.308,13.641a.713.713,0,0,0,.872.462h0a.7.7,0,0,0,.461-.82c-.564-2-2-8.41.205-12.667a6.962,6.962,0,0,1,4.359-3.59c3.692-1.179,7.231.1,10.564,3.846a27.136,27.136,0,0,1,3.692,5.538A.6.6,0,0,0,1051.684,1458.615Z" transform="translate(-1029.668 -1447.158)" fill="#daeef7"/>
          </g>
        </g>
        <g id="Group_2921" data-name="Group 2921" transform="translate(0 21.115)">
          <rect id="Rectangle_609" data-name="Rectangle 609" width="34.615" height="41.949" transform="matrix(0.939, 0.345, -0.345, 0.939, 14.472, 5.897)" fill="#feb546"/>
          <rect id="Rectangle_610" data-name="Rectangle 610" width="17.282" height="41.949" transform="matrix(0.939, 0.345, -0.345, 0.939, 14.456, 5.897)" fill="#f4a640"/>
          <g id="Group_2920" data-name="Group 2920" transform="translate(18.874)">
            <path id="Path_2508" data-name="Path 2508" d="M784.92,1461.115h0a.638.638,0,0,1-.308-.923,28.05,28.05,0,0,1,3.9-5.846c3.641-4.1,7.795-5.538,11.949-4.2a8.343,8.343,0,0,1,5.128,4.256c2.461,4.769.923,11.487.308,13.641a.713.713,0,0,1-.872.461h0a.7.7,0,0,1-.462-.82c.564-2,2-8.41-.205-12.667a6.963,6.963,0,0,0-4.359-3.59c-3.692-1.179-7.231.1-10.564,3.846a27.13,27.13,0,0,0-3.692,5.539A.586.586,0,0,1,784.92,1461.115Z" transform="translate(-784.521 -1449.658)" fill="#daeef7"/>
          </g>
        </g>
      </g>
    </g>
  </g>
</svg>
